<?xml version="1.0" encoding="UTF-8"?>
<svg width="48px" height="30px" viewBox="0 0 48 30" version="1.1" xmlns="http://www.w3.org/2000/svg" xmlns:xlink="http://www.w3.org/1999/xlink">
    <!-- Generator: Sketch 43.1 (39012) - http://www.bohemiancoding.com/sketch -->
    <title>Behance-color</title>
    <desc>Created with Sketch.</desc>
    <defs></defs>
    <g id="Дезигн" stroke="none" stroke-width="1" fill="none" fill-rule="evenodd">
        <g id="Mib-Макет-сайта" transform="translate(-952.000000, -31.000000)" fill="#1769FF">
            <path d="M982.671768,36.0060325 L995.382997,36.0060325 L995.382997,32.3642691 L982.671768,32.3642691 L982.671768,36.0060325 L982.671768,36.0060325 Z M985.683065,43.9522042 C984.873091,44.7763341 984.362271,45.8928074 984.153427,47.3016241 L994.039626,47.3016241 C993.935204,45.7981439 993.421562,44.662181 992.51281,43.8798144 C991.59277,43.1030162 990.461064,42.7160093 989.106404,42.7160093 C987.638855,42.7160093 986.493039,43.1280742 985.683065,43.9522042 L985.683065,43.9522042 L985.683065,43.9522042 Z M994.26258,39.063109 C995.79504,39.736891 997.056567,40.8060325 998.049985,42.2649652 C998.955914,43.5512761 999.537289,45.0436195 999.802576,46.7392111 C999.957798,47.7303944 1000.01989,49.1670534 999.994487,51.0352668 L984.012317,51.0352668 C984.108272,53.2041763 984.864624,54.7271462 986.309595,55.5986079 C987.18448,56.1415313 988.237164,56.4143852 989.473291,56.4143852 C990.77433,56.4143852 991.838302,56.0830626 992.653921,55.4232019 C993.102652,55.0640371 993.497761,54.5684455 993.836426,53.9336427 L999.69251,53.9336427 C999.537289,55.2143852 998.826092,56.5201856 997.567387,57.8454756 C995.603129,59.9475638 992.851476,61 989.315248,61 C986.394261,61 983.817584,60.1146172 981.590862,58.3382831 C979.35285,56.5647332 978.240899,53.67471 978.240899,49.6765661 C978.240899,45.9262181 979.248428,43.050116 981.260663,41.0482599 C983.278543,39.0519722 985.889086,38.0468677 989.103582,38.0468677 C991.014217,38.0468677 992.732943,38.3865429 994.26258,39.063109 L994.26258,39.063109 L994.26258,39.063109 Z M957.912528,47.3795824 L957.912528,55.1837587 L965.114805,55.1837587 C966.401733,55.1837587 967.406439,55.0111369 968.120458,54.6686775 C969.421496,54.0283063 970.070604,52.8143852 970.070604,51.0157773 C970.070604,49.4900232 969.444074,48.4459397 968.182546,47.875174 C967.476994,47.5577726 966.486399,47.3907193 965.216405,47.3795824 L957.912528,47.3795824 L957.912528,47.3795824 Z M957.912528,36.0812065 L957.912528,42.537819 L965.126094,42.537819 C966.410199,42.537819 967.457239,42.2955916 968.264391,41.8111369 C969.065898,41.3266821 969.469474,40.4691415 969.469474,39.2440835 C969.469474,37.8770302 968.938899,36.9777262 967.877748,36.537819 C966.957708,36.2343387 965.789313,36.0812065 964.369742,36.0812065 L957.912528,36.0812065 L957.912528,36.0812065 Z M974.021697,34.1183295 C974.927626,35.362877 975.382002,36.849652 975.382002,38.5842227 C975.382002,40.3689095 974.927626,41.8083527 974.010408,42.8941995 C973.496766,43.5011601 972.743236,44.0580046 971.746996,44.5591647 C973.259701,45.1048724 974.399873,45.9651972 975.17598,47.1429234 C975.943621,48.3178654 976.330264,49.7489559 976.330264,51.4306265 C976.330264,53.1651972 975.889999,54.7215777 975.006648,56.0969838 C974.447851,57.0074246 973.747943,57.7758701 972.906924,58.399536 C971.961484,59.1150812 970.846712,59.6023202 969.556962,59.8696056 C968.267213,60.1341067 966.873042,60.262181 965.365982,60.262181 L952,60.262181 L952,31 L966.334,31 C969.952072,31.0529002 972.511815,32.0914153 974.021697,34.1183295 L974.021697,34.1183295 L974.021697,34.1183295 Z" id="Behance"></path>
        </g>
    </g>
</svg>