<?xml version="1.0" encoding="UTF-8"?>
<svg width="582px" height="348px" viewBox="0 0 582 348" version="1.1" xmlns="http://www.w3.org/2000/svg" xmlns:xlink="http://www.w3.org/1999/xlink">
    <!-- Generator: Sketch 43.1 (39012) - http://www.bohemiancoding.com/sketch -->
    <title>Mib аватар</title>
    <desc>Created with Sketch.</desc>
    <defs></defs>
    <g id="Дезигн" stroke="none" stroke-width="1" fill="none" fill-rule="evenodd">
        <g id="Mib-аватар" fill="#FFFFFF">
            <path d="M174.116014,34.0820312 L239.008593,34.0820312 L239.008593,250 L196.967577,250 L196.967577,103.955078 C196.967577,99.7558384 197.016405,93.8721082 197.114061,86.3037109 C197.211718,78.7353137 197.260546,72.9004111 197.260546,68.7988281 L156.391405,250 L112.592577,250 L72.0164051,68.7988281 C72.0164051,72.9004111 72.0652327,78.7353137 72.1628895,86.3037109 C72.2605462,93.8721082 72.3093739,99.7558384 72.3093739,103.955078 L72.3093739,250 L30.2683582,250 L30.2683582,34.0820312 L95.8933582,34.0820312 L135.151171,203.857422 L174.116014,34.0820312 Z M329.601328,250 L284.777109,250 L284.777109,34.0820312 L329.601328,34.0820312 L329.601328,250 Z M422.830782,71.5820312 L422.830782,119.189453 L475.858126,119.189453 C485.330829,119.189453 493.021182,117.407244 498.929415,113.842773 C504.837647,110.278302 507.791719,103.955124 507.791719,94.8730469 C507.791719,84.8144028 503.885508,78.1738442 496.072969,74.9511719 C489.334654,72.7050669 480.74099,71.5820312 470.291719,71.5820312 L422.830782,71.5820312 Z M422.830782,154.931641 L422.830782,212.5 L475.858126,212.5 C485.330829,212.5 492.703802,211.230481 497.977266,208.691406 C507.547627,204.003883 512.332735,195.019598 512.332735,181.738281 C512.332735,170.507756 507.69411,162.79299 498.416719,158.59375 C493.240912,156.249988 485.965594,155.029297 476.590548,154.931641 L422.830782,154.931641 Z M484.647188,34.0820312 C511.112164,34.4726582 529.861977,42.1385972 540.897188,57.0800781 C547.537846,66.2598115 550.858126,77.2460298 550.858126,90.0390625 C550.858126,103.222722 547.537846,113.818319 540.897188,121.826172 C537.186232,126.318382 531.717537,130.419903 524.490938,134.130859 C535.52615,138.134786 543.851262,144.482378 549.466524,153.173828 C555.081787,161.865278 557.889376,172.412047 557.889376,184.814453 C557.889376,197.607486 554.666752,209.08198 548.221407,219.238281 C544.119824,225.976596 538.992922,231.640602 532.840548,236.230469 C525.906919,241.503933 517.72829,245.117178 508.304415,247.070312 C498.88054,249.023447 488.65115,250 477.615938,250 L379.764376,250 L379.764376,34.0820312 L484.647188,34.0820312 Z" id="M-I-B"></path>
            <path d="M30.2222046,276.571289 L34.1460328,276.571289 L34.1460328,290.905273 L48.5000367,276.571289 L53.9853882,276.571289 L41.7334351,288.442871 L54.3257203,306 L49.2807984,306 L38.9106812,291.165527 L34.1460328,295.75 L34.1460328,306 L30.2222046,306 L30.2222046,276.571289 Z M71.4417329,295.249512 C71.4417329,294.06168 71.3082707,292.970627 71.0413423,291.976318 C70.7744139,290.98201 70.3740273,290.124515 69.8401704,289.403809 C69.3063136,288.683102 68.6490122,288.119224 67.8682466,287.712158 C67.087481,287.305092 66.1832745,287.101562 65.1556001,287.101562 C64.1279257,287.101562 63.2270558,287.305092 62.4529634,287.712158 C61.678871,288.119224 61.0249062,288.683102 60.4910493,289.403809 C59.9571925,290.124515 59.5568059,290.98201 59.2898775,291.976318 C59.0229491,292.970627 58.8894868,294.06168 58.8894868,295.249512 C58.8894868,296.45069 59.0229491,297.555089 59.2898775,298.562744 C59.5568059,299.570399 59.9571925,300.434567 60.4910493,301.155273 C61.0249062,301.87598 61.678871,302.439858 62.4529634,302.846924 C63.2270558,303.25399 64.1279257,303.45752 65.1556001,303.45752 C66.1832745,303.45752 67.087481,303.25399 67.8682466,302.846924 C68.6490122,302.439858 69.3063136,301.87598 69.8401704,301.155273 C70.3740273,300.434567 70.7744139,299.570399 71.0413423,298.562744 C71.3082707,297.555089 71.4417329,296.45069 71.4417329,295.249512 Z M75.1253267,295.249512 C75.1253267,297.011239 74.8984409,298.596103 74.4446626,300.00415 C73.9908843,301.412198 73.3369195,302.610021 72.4827486,303.597656 C71.6285776,304.585291 70.5842359,305.342689 69.3496919,305.869873 C68.115148,306.397057 66.7171314,306.660645 65.1556001,306.660645 C63.5940689,306.660645 62.1993888,306.397057 60.9715181,305.869873 C59.7436474,305.342689 58.7026422,304.585291 57.8484712,303.597656 C56.9943003,302.610021 56.3403355,301.412198 55.8865572,300.00415 C55.4327789,298.596103 55.2058931,297.011239 55.2058931,295.249512 C55.2058931,293.514477 55.4327789,291.946296 55.8865572,290.544922 C56.3403355,289.143548 56.9943003,287.949061 57.8484712,286.961426 C58.7026422,285.973791 59.7436474,285.216393 60.9715181,284.689209 C62.1993888,284.162025 63.5940689,283.898438 65.1556001,283.898438 C66.7171314,283.898438 68.115148,284.162025 69.3496919,284.689209 C70.5842359,285.216393 71.6285776,285.973791 72.4827486,286.961426 C73.3369195,287.949061 73.9908843,289.143548 74.4446626,290.544922 C74.8984409,291.946296 75.1253267,293.514477 75.1253267,295.249512 Z M78.5079409,284.559082 L83.8731753,284.559082 L89.5387027,302.13623 L89.6187808,302.13623 L95.3643863,284.559082 L100.409308,284.559082 L100.409308,306 L96.9659488,306 L96.9659488,288.743164 L96.8858706,288.743164 L91.2203433,306 L87.6969058,306 L82.0313784,288.743164 L81.9513003,288.743164 L81.9513003,306 L78.5079409,306 L78.5079409,284.559082 Z M105.013114,290.985352 C105.053153,289.677402 105.300058,288.573003 105.753836,287.672119 C106.207615,286.771236 106.821541,286.04053 107.595633,285.47998 C108.369726,284.919431 109.287278,284.515708 110.348319,284.268799 C111.409359,284.02189 112.567144,283.898438 113.821708,283.898438 C114.862728,283.898438 115.873705,284.005207 116.854667,284.21875 C117.835628,284.432293 118.706469,284.775958 119.467215,285.249756 C120.227961,285.723554 120.838551,286.33748 121.299002,287.091553 C121.759454,287.845626 121.989676,288.763178 121.989676,289.844238 L121.989676,302.316406 C121.989676,302.663413 122.0831,302.960367 122.26995,303.207275 C122.4568,303.454184 122.75709,303.577637 123.170829,303.577637 C123.357679,303.577637 123.551199,303.560954 123.751395,303.527588 C123.951591,303.494222 124.158458,303.45752 124.372001,303.41748 L124.372001,305.959961 C124.065033,306.040039 123.761406,306.113444 123.461112,306.180176 C123.160817,306.246908 122.803806,306.280273 122.390067,306.280273 C121.749439,306.280273 121.198907,306.226889 120.738456,306.120117 C120.278004,306.013346 119.890964,305.836508 119.577323,305.5896 C119.263682,305.342691 119.020113,305.022382 118.84661,304.628662 C118.673106,304.234943 118.559664,303.751142 118.506278,303.177246 C118.0525,303.671064 117.572036,304.128172 117.064872,304.548584 C116.557708,304.968996 115.990493,305.336017 115.363211,305.649658 C114.73593,305.963299 114.035253,306.210204 113.261161,306.390381 C112.487068,306.570558 111.612891,306.660645 110.638602,306.660645 C109.811124,306.660645 109.007014,306.527182 108.226249,306.260254 C107.445483,305.993325 106.744806,305.599612 106.124198,305.079102 C105.503589,304.558591 105.006442,303.914636 104.632743,303.147217 C104.259043,302.379798 104.072196,301.488937 104.072196,300.474609 C104.072196,299.366856 104.259043,298.409265 104.632743,297.601807 C105.006442,296.794348 105.49358,296.120364 106.094168,295.579834 C106.694757,295.039304 107.382088,294.622235 108.15618,294.328613 C108.930273,294.034992 109.7177,293.841472 110.518485,293.748047 L116.544364,293.007324 C117.11826,292.940592 117.568695,292.717043 117.895682,292.33667 C118.222669,291.956297 118.386161,291.345707 118.386161,290.504883 C118.386161,289.21028 117.962418,288.279381 117.11492,287.712158 C116.267423,287.144935 115.04958,286.861328 113.461356,286.861328 C111.833093,286.861328 110.618587,287.204993 109.817801,287.892334 C109.017016,288.579675 108.563245,289.61067 108.456473,290.985352 L105.013114,290.985352 Z M118.306083,295.089355 C118.012461,295.302898 117.648777,295.479736 117.215018,295.619873 C116.781259,295.76001 116.304132,295.87679 115.783622,295.970215 C115.263111,296.06364 114.709243,296.147054 114.122001,296.220459 C113.534758,296.293864 112.947524,296.370605 112.360282,296.450684 C111.692961,296.544109 111.079035,296.677571 110.518485,296.851074 C109.957935,297.024578 109.470798,297.251463 109.057059,297.531738 C108.64332,297.812013 108.323011,298.149005 108.096122,298.542725 C107.869232,298.936444 107.75579,299.400225 107.75579,299.934082 C107.75579,300.548017 107.85255,301.088539 108.046073,301.555664 C108.239596,302.022789 108.50652,302.416502 108.846854,302.736816 C109.187188,303.057131 109.597584,303.297362 110.078055,303.45752 C110.558526,303.617677 111.085702,303.697754 111.659598,303.697754 C112.019952,303.697754 112.433684,303.654379 112.900809,303.567627 C113.367934,303.480875 113.848398,303.35075 114.342215,303.177246 C114.836033,303.003743 115.319833,302.780193 115.793631,302.506592 C116.267429,302.23299 116.691172,301.902671 117.064872,301.515625 C117.438571,301.128579 117.738861,300.688154 117.965751,300.194336 C118.19264,299.700518 118.306083,299.14665 118.306083,298.532715 L118.306083,295.089355 Z M127.09397,284.559082 L130.777564,284.559082 L130.777564,293.20752 L140.78733,293.20752 L140.78733,284.559082 L144.490943,284.559082 L144.490943,306 L140.78733,306 L140.78733,296.410645 L130.777564,296.410645 L130.777564,306 L127.09397,306 L127.09397,284.559082 Z M167.012229,306 L150.436057,306 L150.436057,311.245117 L146.992698,311.245117 L146.992698,302.796875 L149.815452,302.796875 C150.402694,301.355462 150.869812,299.884041 151.216819,298.382568 C151.563826,296.881096 151.83075,295.3663 152.0176,293.838135 C152.20445,292.30997 152.324566,290.771818 152.377952,289.223633 C152.431337,287.675448 152.45803,286.120613 152.45803,284.559082 L167.432639,284.559082 L167.432639,302.796875 L170.455588,302.796875 L170.455588,311.245117 L167.012229,311.245117 L167.012229,306 Z M163.749045,302.796875 L163.749045,287.762207 L155.981467,287.762207 C155.888042,288.976731 155.791282,290.224603 155.691184,291.505859 C155.591086,292.787116 155.457624,294.07169 155.290793,295.359619 C155.123963,296.647549 154.903751,297.918776 154.630149,299.17334 C154.356547,300.427903 153.999536,301.635736 153.559104,302.796875 L163.749045,302.796875 Z M173.177558,290.985352 C173.217597,289.677402 173.464502,288.573003 173.918281,287.672119 C174.372059,286.771236 174.985985,286.04053 175.760078,285.47998 C176.53417,284.919431 177.451723,284.515708 178.512763,284.268799 C179.573804,284.02189 180.731588,283.898438 181.986152,283.898438 C183.027173,283.898438 184.038149,284.005207 185.019111,284.21875 C186.000073,284.432293 186.870914,284.775958 187.63166,285.249756 C188.392406,285.723554 189.002995,286.33748 189.463447,287.091553 C189.923898,287.845626 190.154121,288.763178 190.154121,289.844238 L190.154121,302.316406 C190.154121,302.663413 190.247544,302.960367 190.434394,303.207275 C190.621244,303.454184 190.921534,303.577637 191.335273,303.577637 C191.522123,303.577637 191.715643,303.560954 191.915839,303.527588 C192.116036,303.494222 192.322902,303.45752 192.536445,303.41748 L192.536445,305.959961 C192.229477,306.040039 191.925851,306.113444 191.625556,306.180176 C191.325262,306.246908 190.96825,306.280273 190.554511,306.280273 C189.913883,306.280273 189.363351,306.226889 188.9029,306.120117 C188.442448,306.013346 188.055408,305.836508 187.741767,305.5896 C187.428126,305.342691 187.184558,305.022382 187.011054,304.628662 C186.837551,304.234943 186.724108,303.751142 186.670722,303.177246 C186.216944,303.671064 185.73648,304.128172 185.229316,304.548584 C184.722152,304.968996 184.154938,305.336017 183.527656,305.649658 C182.900374,305.963299 182.199697,306.210204 181.425605,306.390381 C180.651513,306.570558 179.777335,306.660645 178.803046,306.660645 C177.975568,306.660645 177.171459,306.527182 176.390693,306.260254 C175.609927,305.993325 174.909251,305.599612 174.288642,305.079102 C173.668034,304.558591 173.170887,303.914636 172.797187,303.147217 C172.423487,302.379798 172.23664,301.488937 172.23664,300.474609 C172.23664,299.366856 172.423487,298.409265 172.797187,297.601807 C173.170887,296.794348 173.658024,296.120364 174.258613,295.579834 C174.859202,295.039304 175.546532,294.622235 176.320625,294.328613 C177.094717,294.034992 177.882144,293.841472 178.682929,293.748047 L184.708808,293.007324 C185.282704,292.940592 185.733139,292.717043 186.060126,292.33667 C186.387114,291.956297 186.550605,291.345707 186.550605,290.504883 C186.550605,289.21028 186.126862,288.279381 185.279365,287.712158 C184.431867,287.144935 183.214024,286.861328 181.6258,286.861328 C179.997537,286.861328 178.783031,287.204993 177.982246,287.892334 C177.18146,288.579675 176.727689,289.61067 176.620917,290.985352 L173.177558,290.985352 Z M186.470527,295.089355 C186.176906,295.302898 185.813221,295.479736 185.379462,295.619873 C184.945704,295.76001 184.468576,295.87679 183.948066,295.970215 C183.427556,296.06364 182.873687,296.147054 182.286445,296.220459 C181.699202,296.293864 181.111969,296.370605 180.524726,296.450684 C179.857405,296.544109 179.243479,296.677571 178.682929,296.851074 C178.12238,297.024578 177.635242,297.251463 177.221503,297.531738 C176.807764,297.812013 176.487455,298.149005 176.260566,298.542725 C176.033677,298.936444 175.920234,299.400225 175.920234,299.934082 C175.920234,300.548017 176.016994,301.088539 176.210517,301.555664 C176.40404,302.022789 176.670965,302.416502 177.011298,302.736816 C177.351632,303.057131 177.762028,303.297362 178.2425,303.45752 C178.722971,303.617677 179.250146,303.697754 179.824042,303.697754 C180.184396,303.697754 180.598129,303.654379 181.065253,303.567627 C181.532378,303.480875 182.012842,303.35075 182.50666,303.177246 C183.000477,303.003743 183.484278,302.780193 183.958076,302.506592 C184.431874,302.23299 184.855616,301.902671 185.229316,301.515625 C185.603016,301.128579 185.903306,300.688154 186.130195,300.194336 C186.357084,299.700518 186.470527,299.14665 186.470527,298.532715 L186.470527,295.089355 Z M205.687904,284.559082 L209.371498,284.559082 L209.371498,287.501953 L209.451576,287.501953 C209.691811,287.008136 209.995438,286.541018 210.362464,286.100586 C210.729491,285.660154 211.169916,285.27645 211.683753,284.949463 C212.197591,284.622476 212.791497,284.365561 213.465492,284.178711 C214.139486,283.991861 214.91023,283.898438 215.777748,283.898438 C216.92554,283.898438 218.026603,284.11865 219.08097,284.559082 C220.135337,284.999514 221.069573,285.660152 221.883705,286.541016 C222.697836,287.421879 223.345128,288.526279 223.825599,289.854248 C224.30607,291.182217 224.546302,292.727042 224.546302,294.48877 C224.546302,296.690929 224.322753,298.562736 223.875648,300.104248 C223.428543,301.64576 222.794597,302.903641 221.973792,303.87793 C221.152988,304.852218 220.162031,305.559568 219.000892,306 C217.839753,306.440432 216.54517,306.660645 215.117103,306.660645 C214.409743,306.660645 213.749105,306.567221 213.135169,306.380371 C212.521234,306.193521 211.970702,305.949953 211.483558,305.649658 C210.996414,305.349364 210.579344,305.015708 210.232337,304.648682 C209.88533,304.281655 209.625079,303.924644 209.451576,303.577637 L209.371498,303.577637 L209.371498,314.448242 L205.687904,314.448242 L205.687904,284.559082 Z M209.291419,295.389648 C209.291419,296.550787 209.404862,297.621821 209.631751,298.602783 C209.858641,299.583745 210.208979,300.434567 210.682777,301.155273 C211.156575,301.87598 211.750482,302.439858 212.464515,302.846924 C213.178549,303.25399 214.022697,303.45752 214.996986,303.45752 C216.011314,303.45752 216.888828,303.25399 217.629554,302.846924 C218.370281,302.439858 218.98087,301.87598 219.461341,301.155273 C219.941812,300.434567 220.295487,299.583745 220.522376,298.602783 C220.749266,297.621821 220.862709,296.550787 220.862709,295.389648 C220.862709,294.175124 220.749266,293.060715 220.522376,292.046387 C220.295487,291.032059 219.941812,290.157881 219.461341,289.423828 C218.98087,288.689775 218.370281,288.119224 217.629554,287.712158 C216.888828,287.305092 216.011314,287.101562 214.996986,287.101562 C214.022697,287.101562 213.178549,287.305092 212.464515,287.712158 C211.750482,288.119224 211.156575,288.689775 210.682777,289.423828 C210.208979,290.157881 209.858641,291.032059 209.631751,292.046387 C209.404862,293.060715 209.291419,294.175124 209.291419,295.389648 Z M227.888877,290.985352 C227.928917,289.677402 228.175822,288.573003 228.6296,287.672119 C229.083378,286.771236 229.697305,286.04053 230.471397,285.47998 C231.245489,284.919431 232.163042,284.515708 233.224083,284.268799 C234.285123,284.02189 235.442908,283.898438 236.697471,283.898438 C237.738492,283.898438 238.749468,284.005207 239.73043,284.21875 C240.711392,284.432293 241.582233,284.775958 242.342979,285.249756 C243.103725,285.723554 243.714315,286.33748 244.174766,287.091553 C244.635218,287.845626 244.86544,288.763178 244.86544,289.844238 L244.86544,302.316406 C244.86544,302.663413 244.958863,302.960367 245.145713,303.207275 C245.332563,303.454184 245.632853,303.577637 246.046592,303.577637 C246.233442,303.577637 246.426962,303.560954 246.627159,303.527588 C246.827355,303.494222 247.034221,303.45752 247.247764,303.41748 L247.247764,305.959961 C246.940796,306.040039 246.63717,306.113444 246.336875,306.180176 C246.036581,306.246908 245.67957,306.280273 245.265831,306.280273 C244.625202,306.280273 244.074671,306.226889 243.614219,306.120117 C243.153768,306.013346 242.766727,305.836508 242.453086,305.5896 C242.139446,305.342691 241.895877,305.022382 241.722374,304.628662 C241.54887,304.234943 241.435427,303.751142 241.382042,303.177246 C240.928263,303.671064 240.447799,304.128172 239.940635,304.548584 C239.433471,304.968996 238.866257,305.336017 238.238975,305.649658 C237.611693,305.963299 236.911017,306.210204 236.136924,306.390381 C235.362832,306.570558 234.488654,306.660645 233.514366,306.660645 C232.686888,306.660645 231.882778,306.527182 231.102012,306.260254 C230.321247,305.993325 229.62057,305.599612 228.999961,305.079102 C228.379353,304.558591 227.882206,303.914636 227.508506,303.147217 C227.134807,302.379798 226.947959,301.488937 226.947959,300.474609 C226.947959,299.366856 227.134807,298.409265 227.508506,297.601807 C227.882206,296.794348 228.369343,296.120364 228.969932,295.579834 C229.570521,295.039304 230.257851,294.622235 231.031944,294.328613 C231.806036,294.034992 232.593463,293.841472 233.394249,293.748047 L239.420127,293.007324 C239.994024,292.940592 240.444458,292.717043 240.771446,292.33667 C241.098433,291.956297 241.261924,291.345707 241.261924,290.504883 C241.261924,289.21028 240.838182,288.279381 239.990684,287.712158 C239.143186,287.144935 237.925344,286.861328 236.33712,286.861328 C234.708856,286.861328 233.49435,287.204993 232.693565,287.892334 C231.89278,288.579675 231.439008,289.61067 231.332237,290.985352 L227.888877,290.985352 Z M241.181846,295.089355 C240.888225,295.302898 240.52454,295.479736 240.090782,295.619873 C239.657023,295.76001 239.179896,295.87679 238.659385,295.970215 C238.138875,296.06364 237.585007,296.147054 236.997764,296.220459 C236.410522,296.293864 235.823288,296.370605 235.236045,296.450684 C234.568724,296.544109 233.954798,296.677571 233.394249,296.851074 C232.833699,297.024578 232.346562,297.251463 231.932823,297.531738 C231.519084,297.812013 231.198774,298.149005 230.971885,298.542725 C230.744996,298.936444 230.631553,299.400225 230.631553,299.934082 C230.631553,300.548017 230.728313,301.088539 230.921836,301.555664 C231.11536,302.022789 231.382284,302.416502 231.722618,302.736816 C232.062951,303.057131 232.473348,303.297362 232.953819,303.45752 C233.43429,303.617677 233.961466,303.697754 234.535362,303.697754 C234.895715,303.697754 235.309448,303.654379 235.776573,303.567627 C236.243697,303.480875 236.724161,303.35075 237.217979,303.177246 C237.711797,303.003743 238.195597,302.780193 238.669395,302.506592 C239.143193,302.23299 239.566935,301.902671 239.940635,301.515625 C240.314335,301.128579 240.614625,300.688154 240.841514,300.194336 C241.068403,299.700518 241.181846,299.14665 241.181846,298.532715 L241.181846,295.089355 Z M255.515144,293.60791 L257.37696,293.60791 C257.870778,293.60791 258.384608,293.547852 258.918464,293.427734 C259.452321,293.307617 259.939458,293.117433 260.37989,292.857178 C260.820322,292.596923 261.184007,292.25993 261.470955,291.846191 C261.757903,291.432452 261.901375,290.931969 261.901375,290.344727 C261.901375,289.917641 261.811288,289.507245 261.631111,289.113525 C261.450934,288.719806 261.18401,288.372804 260.83033,288.07251 C260.476649,287.772215 260.032888,287.53532 259.499031,287.361816 C258.965174,287.188313 258.344575,287.101562 257.637214,287.101562 C257.263515,287.101562 256.823089,287.154947 256.315925,287.261719 C255.808761,287.36849 255.311615,287.565347 254.82447,287.852295 C254.337326,288.139243 253.903574,288.546303 253.523201,289.073486 C253.142828,289.60067 252.899259,290.284664 252.792488,291.125488 L249.349128,291.125488 C249.442553,290.164546 249.636074,289.320398 249.929695,288.593018 C250.223316,287.865638 250.590337,287.235029 251.030769,286.701172 C251.471201,286.167315 251.968348,285.720217 252.522224,285.359863 C253.076101,284.99951 253.649988,284.712566 254.243904,284.499023 C254.83782,284.285481 255.435063,284.131999 256.035652,284.038574 C256.636241,283.945149 257.210128,283.898438 257.757332,283.898438 C258.718274,283.898438 259.665856,284.02189 260.600105,284.268799 C261.534354,284.515708 262.37183,284.889402 263.112556,285.389893 C263.853283,285.890383 264.450526,286.520992 264.904304,287.281738 C265.358083,288.042484 265.584968,288.930008 265.584968,289.944336 C265.584968,290.598311 265.491545,291.175535 265.304695,291.676025 C265.117845,292.176516 264.874276,292.613605 264.573982,292.987305 C264.273687,293.361004 263.936695,293.677977 263.562996,293.938232 C263.189296,294.198488 262.822275,294.415364 262.461921,294.588867 L262.461921,294.688965 C262.835621,294.755697 263.249354,294.892496 263.703132,295.099365 C264.156911,295.306235 264.577317,295.599852 264.964363,295.980225 C265.351409,296.360598 265.675055,296.847735 265.93531,297.44165 C266.195565,298.035566 266.325691,298.759599 266.325691,299.61377 C266.325691,300.814947 266.068776,301.855953 265.554939,302.736816 C265.041102,303.61768 264.370454,304.348386 263.542976,304.928955 C262.715498,305.509524 261.781263,305.943277 260.740242,306.230225 C259.699221,306.517173 258.651543,306.660645 257.597175,306.660645 C256.23584,306.660645 255.004652,306.487144 253.903572,306.140137 C252.802492,305.79313 251.851574,305.29932 251.050789,304.658691 C250.250003,304.018063 249.612721,303.250656 249.138923,302.356445 C248.665125,301.462235 248.381518,300.474615 248.288093,299.393555 L251.991707,299.393555 C252.085131,300.180994 252.312017,300.834958 252.672371,301.355469 C253.032724,301.875979 253.466476,302.289712 253.97364,302.59668 C254.480804,302.903647 255.044682,303.12386 255.665291,303.257324 C256.285899,303.390788 256.916508,303.45752 257.557136,303.45752 C259.252132,303.45752 260.523359,303.117191 261.370857,302.436523 C262.218355,301.755856 262.642097,300.84164 262.642097,299.693848 C262.642097,299.20003 262.565356,298.759605 262.411873,298.372559 C262.258389,297.985512 262.001474,297.655193 261.641121,297.381592 C261.280767,297.10799 260.80364,296.901124 260.209724,296.760986 C259.615808,296.620849 258.87843,296.550781 257.997566,296.550781 C257.824062,296.550781 257.627206,296.554118 257.40699,296.560791 C257.186774,296.567464 256.966561,296.577474 256.746345,296.59082 C256.526129,296.604167 256.309253,296.62085 256.09571,296.640869 C255.882168,296.660889 255.688648,296.677572 255.515144,296.690918 L255.515144,293.60791 Z M269.50811,284.559082 L273.191704,284.559082 L273.191704,287.501953 L273.271782,287.501953 C273.512017,287.008136 273.815644,286.541018 274.18267,286.100586 C274.549697,285.660154 274.990122,285.27645 275.503959,284.949463 C276.017797,284.622476 276.611704,284.365561 277.285698,284.178711 C277.959692,283.991861 278.730436,283.898438 279.597954,283.898438 C280.745746,283.898438 281.846809,284.11865 282.901176,284.559082 C283.955544,284.999514 284.889779,285.660152 285.703911,286.541016 C286.518042,287.421879 287.165334,288.526279 287.645805,289.854248 C288.126276,291.182217 288.366508,292.727042 288.366508,294.48877 C288.366508,296.690929 288.142959,298.562736 287.695854,300.104248 C287.248749,301.64576 286.614803,302.903641 285.793999,303.87793 C284.973194,304.852218 283.982237,305.559568 282.821098,306 C281.65996,306.440432 280.365376,306.660645 278.937309,306.660645 C278.229949,306.660645 277.569311,306.567221 276.955375,306.380371 C276.34144,306.193521 275.790909,305.949953 275.303764,305.649658 C274.81662,305.349364 274.39955,305.015708 274.052543,304.648682 C273.705537,304.281655 273.445285,303.924644 273.271782,303.577637 L273.191704,303.577637 L273.191704,314.448242 L269.50811,314.448242 L269.50811,284.559082 Z M273.111625,295.389648 C273.111625,296.550787 273.225068,297.621821 273.451958,298.602783 C273.678847,299.583745 274.029185,300.434567 274.502983,301.155273 C274.976781,301.87598 275.570688,302.439858 276.284721,302.846924 C276.998755,303.25399 277.842903,303.45752 278.817192,303.45752 C279.83152,303.45752 280.709034,303.25399 281.44976,302.846924 C282.190487,302.439858 282.801076,301.87598 283.281547,301.155273 C283.762019,300.434567 284.115693,299.583745 284.342583,298.602783 C284.569472,297.621821 284.682915,296.550787 284.682915,295.389648 C284.682915,294.175124 284.569472,293.060715 284.342583,292.046387 C284.115693,291.032059 283.762019,290.157881 283.281547,289.423828 C282.801076,288.689775 282.190487,288.119224 281.44976,287.712158 C280.709034,287.305092 279.83152,287.101562 278.817192,287.101562 C277.842903,287.101562 276.998755,287.305092 276.284721,287.712158 C275.570688,288.119224 274.976781,288.689775 274.502983,289.423828 C274.029185,290.157881 273.678847,291.032059 273.451958,292.046387 C273.225068,293.060715 273.111625,294.175124 273.111625,295.389648 Z M291.709083,290.985352 C291.749123,289.677402 291.996028,288.573003 292.449806,287.672119 C292.903584,286.771236 293.517511,286.04053 294.291603,285.47998 C295.065695,284.919431 295.983248,284.515708 297.044289,284.268799 C298.105329,284.02189 299.263114,283.898438 300.517677,283.898438 C301.558698,283.898438 302.569674,284.005207 303.550636,284.21875 C304.531598,284.432293 305.402439,284.775958 306.163185,285.249756 C306.923931,285.723554 307.534521,286.33748 307.994972,287.091553 C308.455424,287.845626 308.685646,288.763178 308.685646,289.844238 L308.685646,302.316406 C308.685646,302.663413 308.77907,302.960367 308.965919,303.207275 C309.152769,303.454184 309.453059,303.577637 309.866798,303.577637 C310.053648,303.577637 310.247168,303.560954 310.447365,303.527588 C310.647561,303.494222 310.854427,303.45752 311.06797,303.41748 L311.06797,305.959961 C310.761003,306.040039 310.457376,306.113444 310.157082,306.180176 C309.856787,306.246908 309.499776,306.280273 309.086037,306.280273 C308.445408,306.280273 307.894877,306.226889 307.434425,306.120117 C306.973974,306.013346 306.586933,305.836508 306.273292,305.5896 C305.959652,305.342691 305.716083,305.022382 305.54258,304.628662 C305.369076,304.234943 305.255633,303.751142 305.202248,303.177246 C304.748469,303.671064 304.268005,304.128172 303.760841,304.548584 C303.253677,304.968996 302.686463,305.336017 302.059181,305.649658 C301.431899,305.963299 300.731223,306.210204 299.95713,306.390381 C299.183038,306.570558 298.308861,306.660645 297.334572,306.660645 C296.507094,306.660645 295.702984,306.527182 294.922218,306.260254 C294.141453,305.993325 293.440776,305.599612 292.820167,305.079102 C292.199559,304.558591 291.702412,303.914636 291.328712,303.147217 C290.955013,302.379798 290.768166,301.488937 290.768166,300.474609 C290.768166,299.366856 290.955013,298.409265 291.328712,297.601807 C291.702412,296.794348 292.189549,296.120364 292.790138,295.579834 C293.390727,295.039304 294.078057,294.622235 294.85215,294.328613 C295.626242,294.034992 296.413669,293.841472 297.214455,293.748047 L303.240333,293.007324 C303.81423,292.940592 304.264665,292.717043 304.591652,292.33667 C304.918639,291.956297 305.08213,291.345707 305.08213,290.504883 C305.08213,289.21028 304.658388,288.279381 303.81089,287.712158 C302.963392,287.144935 301.74555,286.861328 300.157326,286.861328 C298.529062,286.861328 297.314556,287.204993 296.513771,287.892334 C295.712986,288.579675 295.259214,289.61067 295.152443,290.985352 L291.709083,290.985352 Z M305.002052,295.089355 C304.708431,295.302898 304.344746,295.479736 303.910988,295.619873 C303.477229,295.76001 303.000102,295.87679 302.479591,295.970215 C301.959081,296.06364 301.405213,296.147054 300.81797,296.220459 C300.230728,296.293864 299.643494,296.370605 299.056251,296.450684 C298.38893,296.544109 297.775004,296.677571 297.214455,296.851074 C296.653905,297.024578 296.166768,297.251463 295.753029,297.531738 C295.33929,297.812013 295.01898,298.149005 294.792091,298.542725 C294.565202,298.936444 294.451759,299.400225 294.451759,299.934082 C294.451759,300.548017 294.548519,301.088539 294.742042,301.555664 C294.935566,302.022789 295.20249,302.416502 295.542824,302.736816 C295.883157,303.057131 296.293554,303.297362 296.774025,303.45752 C297.254496,303.617677 297.781672,303.697754 298.355568,303.697754 C298.715921,303.697754 299.129654,303.654379 299.596779,303.567627 C300.063904,303.480875 300.544367,303.35075 301.038185,303.177246 C301.532003,303.003743 302.015803,302.780193 302.489601,302.506592 C302.963399,302.23299 303.387142,301.902671 303.760841,301.515625 C304.134541,301.128579 304.434831,300.688154 304.66172,300.194336 C304.888609,299.700518 305.002052,299.14665 305.002052,298.532715 L305.002052,295.089355 Z M330.44619,276.311035 C330.419497,276.511231 330.382795,276.7548 330.336083,277.041748 C330.28937,277.328696 330.199283,277.632323 330.065819,277.952637 C329.932355,278.272951 329.748844,278.596597 329.515282,278.923584 C329.281719,279.250571 328.97142,279.554198 328.584374,279.834473 C328.370831,279.981283 328.177311,280.108072 328.003807,280.214844 C327.830304,280.321615 327.610091,280.415039 327.343163,280.495117 C327.076234,280.575196 326.735906,280.641927 326.322167,280.695312 C325.908427,280.748698 325.354559,280.782064 324.660545,280.79541 L323.139061,280.835449 C322.09804,280.862142 321.160468,281.072345 320.326317,281.466064 C319.492166,281.859784 318.758123,282.406979 318.124168,283.107666 C317.490213,283.808353 316.966374,284.652502 316.552635,285.640137 C316.138896,286.627772 315.831933,287.728835 315.631737,288.943359 C315.912012,288.409503 316.259013,287.885663 316.672752,287.371826 C317.086491,286.857989 317.600321,286.397544 318.214256,285.990479 C318.828192,285.583413 319.548888,285.25643 320.376366,285.009521 C321.203844,284.762613 322.164772,284.63916 323.259178,284.63916 C324.500395,284.63916 325.678199,284.859373 326.792625,285.299805 C327.907052,285.740237 328.881326,286.400875 329.715477,287.281738 C330.549628,288.162602 331.213603,289.256992 331.70742,290.564941 C332.201238,291.872891 332.448143,293.39436 332.448143,295.129395 C332.448143,295.676598 332.408104,296.340572 332.328026,297.121338 C332.247947,297.902104 332.087793,298.71956 331.847557,299.57373 C331.607322,300.427901 331.263656,301.278723 330.816551,302.126221 C330.369446,302.973718 329.775539,303.731116 329.034813,304.398438 C328.294087,305.065759 327.393217,305.609617 326.332176,306.030029 C325.271136,306.450442 323.999908,306.660645 322.518456,306.660645 C321.90452,306.660645 321.253892,306.610596 320.566551,306.510498 C319.879211,306.4104 319.19188,306.226889 318.50454,305.959961 C317.817199,305.693033 317.149888,305.319338 316.502586,304.838867 C315.855285,304.358396 315.264715,303.74447 314.730858,302.99707 C314.463929,302.623371 314.200342,302.192955 313.940086,301.705811 C313.679831,301.218666 313.442936,300.628096 313.229393,299.934082 C313.01585,299.240068 312.845686,298.419276 312.718895,297.47168 C312.592104,296.524084 312.528709,295.403001 312.528709,294.108398 C312.528709,293.254228 312.568748,292.286626 312.648827,291.205566 C312.728905,290.124506 312.869041,289.023443 313.069237,287.902344 C313.269433,286.781244 313.536358,285.696864 313.870018,284.64917 C314.203679,283.601476 314.630758,282.683923 315.151268,281.896484 C315.711818,281.042313 316.299051,280.34831 316.912987,279.814453 C317.526922,279.280596 318.180887,278.86019 318.874901,278.553223 C319.568915,278.246255 320.316303,278.026042 321.117088,277.892578 C321.917874,277.759114 322.785378,277.672363 323.719627,277.632324 L325.020897,277.592285 C325.447982,277.578939 325.811667,277.555583 326.111961,277.522217 C326.412256,277.488851 326.662498,277.432129 326.862694,277.352051 C327.06289,277.271972 327.223045,277.151856 327.343163,276.991699 C327.46328,276.831542 327.563377,276.604656 327.643456,276.311035 L330.44619,276.311035 Z M316.212303,295.669922 C316.212303,296.070315 316.235659,296.544105 316.282372,297.091309 C316.329084,297.638512 316.425844,298.209063 316.572655,298.802979 C316.719465,299.396894 316.933005,299.987465 317.21328,300.574707 C317.493555,301.16195 317.863912,301.685789 318.324364,302.14624 C318.784815,302.606692 319.355366,302.980386 320.036034,303.267334 C320.716701,303.554282 321.530821,303.697754 322.478417,303.697754 C323.532784,303.697754 324.420307,303.52759 325.141014,303.187256 C325.861721,302.846922 326.455628,302.406497 326.922752,301.865967 C327.389877,301.325437 327.746889,300.728193 327.993797,300.074219 C328.240706,299.420244 328.42088,298.782962 328.534325,298.162354 C328.647769,297.541745 328.7145,296.974531 328.73452,296.460693 C328.75454,295.946856 328.764549,295.556479 328.764549,295.289551 C328.764549,294.315262 328.654443,293.361007 328.434227,292.426758 C328.214011,291.492508 327.860336,290.665043 327.373192,289.944336 C326.886048,289.223629 326.252102,288.643069 325.471336,288.202637 C324.690571,287.762205 323.732979,287.541992 322.598534,287.541992 C321.490781,287.541992 320.536526,287.758868 319.735741,288.192627 C318.934955,288.626386 318.274318,289.213619 317.753807,289.954346 C317.233297,290.695072 316.846256,291.555903 316.592674,292.536865 C316.339092,293.517827 316.212303,294.562169 316.212303,295.669922 Z M350.805367,295.249512 C350.805367,294.06168 350.671904,292.970627 350.404976,291.976318 C350.138048,290.98201 349.737661,290.124515 349.203804,289.403809 C348.669947,288.683102 348.012646,288.119224 347.23188,287.712158 C346.451115,287.305092 345.546908,287.101562 344.519234,287.101562 C343.491559,287.101562 342.59069,287.305092 341.816597,287.712158 C341.042505,288.119224 340.38854,288.683102 339.854683,289.403809 C339.320826,290.124515 338.92044,290.98201 338.653511,291.976318 C338.386583,292.970627 338.253121,294.06168 338.253121,295.249512 C338.253121,296.45069 338.386583,297.555089 338.653511,298.562744 C338.92044,299.570399 339.320826,300.434567 339.854683,301.155273 C340.38854,301.87598 341.042505,302.439858 341.816597,302.846924 C342.59069,303.25399 343.491559,303.45752 344.519234,303.45752 C345.546908,303.45752 346.451115,303.25399 347.23188,302.846924 C348.012646,302.439858 348.669947,301.87598 349.203804,301.155273 C349.737661,300.434567 350.138048,299.570399 350.404976,298.562744 C350.671904,297.555089 350.805367,296.45069 350.805367,295.249512 Z M354.48896,295.249512 C354.48896,297.011239 354.262075,298.596103 353.808296,300.00415 C353.354518,301.412198 352.700553,302.610021 351.846382,303.597656 C350.992211,304.585291 349.94787,305.342689 348.713326,305.869873 C347.478782,306.397057 346.080765,306.660645 344.519234,306.660645 C342.957703,306.660645 341.563023,306.397057 340.335152,305.869873 C339.107281,305.342689 338.066276,304.585291 337.212105,303.597656 C336.357934,302.610021 335.703969,301.412198 335.250191,300.00415 C334.796413,298.596103 334.569527,297.011239 334.569527,295.249512 C334.569527,293.514477 334.796413,291.946296 335.250191,290.544922 C335.703969,289.143548 336.357934,287.949061 337.212105,286.961426 C338.066276,285.973791 339.107281,285.216393 340.335152,284.689209 C341.563023,284.162025 342.957703,283.898438 344.519234,283.898438 C346.080765,283.898438 347.478782,284.162025 348.713326,284.689209 C349.94787,285.216393 350.992211,285.973791 351.846382,286.961426 C352.700553,287.949061 353.354518,289.143548 353.808296,290.544922 C354.262075,291.946296 354.48896,293.514477 354.48896,295.249512 Z M363.577141,287.762207 L356.189934,287.762207 L356.189934,284.559082 L374.647942,284.559082 L374.647942,287.762207 L367.260735,287.762207 L367.260735,306 L363.577141,306 L363.577141,287.762207 Z M377.610146,284.559082 L381.29374,284.559082 L381.29374,294.929199 L392.124306,284.559082 L396.949013,284.559082 L386.879189,294.02832 L397.109169,306 L392.364541,306 L383.996376,296.270508 L381.29374,298.532715 L381.29374,306 L377.610146,306 L377.610146,284.559082 Z M399.310631,284.559082 L402.994225,284.559082 L402.994225,300.995117 L403.074303,300.995117 L413.604577,284.559082 L417.828698,284.559082 L417.828698,306 L414.125084,306 L414.125084,289.563965 L414.045006,289.563965 L403.534752,306 L399.310631,306 L399.310631,284.559082 Z M449.958672,298.452637 C449.905287,298.973147 449.801853,299.540362 449.64837,300.154297 C449.494886,300.768232 449.271337,301.378822 448.977715,301.986084 C448.684094,302.593346 448.307063,303.177243 447.846612,303.737793 C447.38616,304.298343 446.825619,304.795489 446.164971,305.229248 C445.504323,305.663007 444.726906,306.010008 443.832696,306.270264 C442.938486,306.530519 441.9175,306.660645 440.769708,306.660645 C440.142426,306.660645 439.481788,306.583904 438.787774,306.43042 C438.09376,306.276936 437.416439,306.020021 436.755791,305.659668 C436.095144,305.299315 435.467871,304.835533 434.873956,304.268311 C434.28004,303.701088 433.759537,302.997075 433.312432,302.15625 C432.865327,301.315425 432.508316,300.337815 432.241387,299.223389 C431.974459,298.108963 431.840997,296.831062 431.840997,295.389648 C431.840997,293.614574 432.094575,292.016365 432.601739,290.594971 C433.108903,289.173577 433.786223,287.96908 434.633721,286.981445 C435.481219,285.99381 436.468839,285.233076 437.596612,284.699219 C438.724384,284.165362 439.908861,283.898438 441.150079,283.898438 C442.271178,283.898438 443.262135,284.018553 444.122979,284.258789 C444.983823,284.499025 445.734548,284.819334 446.375176,285.219727 C447.015804,285.620119 447.556326,286.0839 447.996758,286.611084 C448.43719,287.138268 448.794202,287.692136 449.067803,288.272705 C449.341405,288.853274 449.548271,289.443845 449.688409,290.044434 C449.828546,290.645023 449.918633,291.21891 449.958672,291.766113 L446.515313,291.766113 C446.328463,290.311353 445.824643,289.170252 445.003838,288.342773 C444.183033,287.515295 443.031922,287.101562 441.550469,287.101562 C440.536141,287.101562 439.651954,287.308429 438.897881,287.722168 C438.143809,288.135907 437.516536,288.713131 437.016045,289.453857 C436.515555,290.194584 436.14186,291.088781 435.894952,292.136475 C435.648043,293.184169 435.52459,294.33528 435.52459,295.589844 C435.52459,297.004564 435.658053,298.222407 435.924981,299.243408 C436.191909,300.264409 436.572277,301.105221 437.066094,301.765869 C437.559912,302.426517 438.163828,302.913654 438.877862,303.227295 C439.591895,303.540936 440.402678,303.697754 441.310235,303.697754 C441.950863,303.697754 442.558116,303.580974 443.132012,303.347412 C443.705908,303.11385 444.219738,302.773521 444.673516,302.326416 C445.127294,301.879311 445.514335,301.328779 445.834649,300.674805 C446.154963,300.02083 446.381849,299.280115 446.515313,298.452637 L449.958672,298.452637 Z M452.800759,290.985352 C452.840799,289.677402 453.087704,288.573003 453.541482,287.672119 C453.99526,286.771236 454.609186,286.04053 455.383279,285.47998 C456.157371,284.919431 457.074924,284.515708 458.135964,284.268799 C459.197005,284.02189 460.354789,283.898438 461.609353,283.898438 C462.650374,283.898438 463.66135,284.005207 464.642312,284.21875 C465.623274,284.432293 466.494115,284.775958 467.254861,285.249756 C468.015607,285.723554 468.626196,286.33748 469.086648,287.091553 C469.547099,287.845626 469.777322,288.763178 469.777322,289.844238 L469.777322,302.316406 C469.777322,302.663413 469.870745,302.960367 470.057595,303.207275 C470.244445,303.454184 470.544735,303.577637 470.958474,303.577637 C471.145324,303.577637 471.338844,303.560954 471.539041,303.527588 C471.739237,303.494222 471.946103,303.45752 472.159646,303.41748 L472.159646,305.959961 C471.852678,306.040039 471.549052,306.113444 471.248757,306.180176 C470.948463,306.246908 470.591451,306.280273 470.177712,306.280273 C469.537084,306.280273 468.986553,306.226889 468.526101,306.120117 C468.06565,306.013346 467.678609,305.836508 467.364968,305.5896 C467.051327,305.342691 466.807759,305.022382 466.634255,304.628662 C466.460752,304.234943 466.347309,303.751142 466.293923,303.177246 C465.840145,303.671064 465.359681,304.128172 464.852517,304.548584 C464.345353,304.968996 463.778139,305.336017 463.150857,305.649658 C462.523575,305.963299 461.822899,306.210204 461.048806,306.390381 C460.274714,306.570558 459.400536,306.660645 458.426248,306.660645 C457.598769,306.660645 456.79466,306.527182 456.013894,306.260254 C455.233128,305.993325 454.532452,305.599612 453.911843,305.079102 C453.291235,304.558591 452.794088,303.914636 452.420388,303.147217 C452.046688,302.379798 451.859841,301.488937 451.859841,300.474609 C451.859841,299.366856 452.046688,298.409265 452.420388,297.601807 C452.794088,296.794348 453.281225,296.120364 453.881814,295.579834 C454.482403,295.039304 455.169733,294.622235 455.943826,294.328613 C456.717918,294.034992 457.505345,293.841472 458.30613,293.748047 L464.332009,293.007324 C464.905905,292.940592 465.35634,292.717043 465.683328,292.33667 C466.010315,291.956297 466.173806,291.345707 466.173806,290.504883 C466.173806,289.21028 465.750064,288.279381 464.902566,287.712158 C464.055068,287.144935 462.837226,286.861328 461.249001,286.861328 C459.620738,286.861328 458.406232,287.204993 457.605447,287.892334 C456.804662,288.579675 456.35089,289.61067 456.244119,290.985352 L452.800759,290.985352 Z M466.093728,295.089355 C465.800107,295.302898 465.436422,295.479736 465.002664,295.619873 C464.568905,295.76001 464.091777,295.87679 463.571267,295.970215 C463.050757,296.06364 462.496888,296.147054 461.909646,296.220459 C461.322403,296.293864 460.73517,296.370605 460.147927,296.450684 C459.480606,296.544109 458.86668,296.677571 458.30613,296.851074 C457.745581,297.024578 457.258444,297.251463 456.844705,297.531738 C456.430966,297.812013 456.110656,298.149005 455.883767,298.542725 C455.656878,298.936444 455.543435,299.400225 455.543435,299.934082 C455.543435,300.548017 455.640195,301.088539 455.833718,301.555664 C456.027241,302.022789 456.294166,302.416502 456.634499,302.736816 C456.974833,303.057131 457.38523,303.297362 457.865701,303.45752 C458.346172,303.617677 458.873348,303.697754 459.447244,303.697754 C459.807597,303.697754 460.22133,303.654379 460.688455,303.567627 C461.155579,303.480875 461.636043,303.35075 462.129861,303.177246 C462.623678,303.003743 463.107479,302.780193 463.581277,302.506592 C464.055075,302.23299 464.478817,301.902671 464.852517,301.515625 C465.226217,301.128579 465.526507,300.688154 465.753396,300.194336 C465.980285,299.700518 466.093728,299.14665 466.093728,298.532715 L466.093728,295.089355 Z M480.66726,276.230957 C480.840764,277.085128 481.201112,277.762449 481.748315,278.262939 C482.295518,278.76343 483.102965,279.013672 484.170678,279.013672 C485.251738,279.013672 486.065858,278.770103 486.613061,278.282959 C487.160264,277.795815 487.513939,277.111821 487.674096,276.230957 L491.097436,276.230957 C491.08409,277.031742 490.910589,277.755775 490.576928,278.403076 C490.243268,279.050378 489.772813,279.600909 489.165551,280.054688 C488.558289,280.508466 487.83092,280.858804 486.983422,281.105713 C486.135925,281.352622 485.198353,281.476074 484.170678,281.476074 C483.143004,281.476074 482.208768,281.355958 481.367944,281.115723 C480.527119,280.875487 479.806423,280.528485 479.205834,280.074707 C478.605246,279.620929 478.134791,279.070397 477.794457,278.423096 C477.454124,277.775794 477.277286,277.045089 477.26394,276.230957 L480.66726,276.230957 Z M474.881616,284.559082 L478.565209,284.559082 L478.565209,300.995117 L478.645288,300.995117 L489.175561,284.559082 L493.399682,284.559082 L493.399682,306 L489.696069,306 L489.696069,289.563965 L489.615991,289.563965 L479.105737,306 L474.881616,306 L474.881616,284.559082 Z M503.749093,287.762207 L496.361886,287.762207 L496.361886,284.559082 L514.819894,284.559082 L514.819894,287.762207 L507.432687,287.762207 L507.432687,306 L503.749093,306 L503.749093,287.762207 Z M532.756707,295.249512 C532.756707,294.06168 532.623245,292.970627 532.356317,291.976318 C532.089388,290.98201 531.689002,290.124515 531.155145,289.403809 C530.621288,288.683102 529.963987,288.119224 529.183221,287.712158 C528.402456,287.305092 527.498249,287.101562 526.470575,287.101562 C525.4429,287.101562 524.54203,287.305092 523.767938,287.712158 C522.993846,288.119224 522.339881,288.683102 521.806024,289.403809 C521.272167,290.124515 520.87178,290.98201 520.604852,291.976318 C520.337924,292.970627 520.204461,294.06168 520.204461,295.249512 C520.204461,296.45069 520.337924,297.555089 520.604852,298.562744 C520.87178,299.570399 521.272167,300.434567 521.806024,301.155273 C522.339881,301.87598 522.993846,302.439858 523.767938,302.846924 C524.54203,303.25399 525.4429,303.45752 526.470575,303.45752 C527.498249,303.45752 528.402456,303.25399 529.183221,302.846924 C529.963987,302.439858 530.621288,301.87598 531.155145,301.155273 C531.689002,300.434567 532.089388,299.570399 532.356317,298.562744 C532.623245,297.555089 532.756707,296.45069 532.756707,295.249512 Z M536.440301,295.249512 C536.440301,297.011239 536.213415,298.596103 535.759637,300.00415 C535.305859,301.412198 534.651894,302.610021 533.797723,303.597656 C532.943552,304.585291 531.89921,305.342689 530.664666,305.869873 C529.430123,306.397057 528.032106,306.660645 526.470575,306.660645 C524.909043,306.660645 523.514363,306.397057 522.286493,305.869873 C521.058622,305.342689 520.017617,304.585291 519.163446,303.597656 C518.309275,302.610021 517.65531,301.412198 517.201532,300.00415 C516.747753,298.596103 516.520868,297.011239 516.520868,295.249512 C516.520868,293.514477 516.747753,291.946296 517.201532,290.544922 C517.65531,289.143548 518.309275,287.949061 519.163446,286.961426 C520.017617,285.973791 521.058622,285.216393 522.286493,284.689209 C523.514363,284.162025 524.909043,283.898438 526.470575,283.898438 C528.032106,283.898438 529.430123,284.162025 530.664666,284.689209 C531.89921,285.216393 532.943552,285.973791 533.797723,286.961426 C534.651894,287.949061 535.305859,289.143548 535.759637,290.544922 C536.213415,291.946296 536.440301,293.514477 536.440301,295.249512 Z M539.822915,284.559082 L548.951822,284.559082 C551.56772,284.559082 553.526278,285.046219 554.827554,286.020508 C556.12883,286.994797 556.779458,288.409496 556.779458,290.264648 C556.779458,291.252284 556.539226,292.086422 556.058755,292.76709 C555.578284,293.447757 554.944339,294.048337 554.1569,294.568848 C555.291346,294.995933 556.192216,295.609859 556.859537,296.410645 C557.526858,297.21143 557.860513,298.245762 557.860513,299.513672 C557.860513,300.514653 557.693685,301.415523 557.360025,302.216309 C557.026364,303.017094 556.519208,303.697751 555.83854,304.258301 C555.157873,304.81885 554.293705,305.249266 553.246011,305.549561 C552.198317,305.849855 550.960455,306 549.532388,306 L539.822915,306 L539.822915,284.559082 Z M543.506509,303.057129 L549.111978,303.057129 C550.086267,303.057129 550.89705,302.980388 551.544351,302.826904 C552.191652,302.67342 552.708819,302.449871 553.095865,302.15625 C553.482911,301.862629 553.756508,301.508954 553.916665,301.095215 C554.076823,300.681476 554.1569,300.214358 554.1569,299.693848 C554.1569,299.173337 554.076823,298.702883 553.916665,298.282471 C553.756508,297.862058 553.482911,297.508384 553.095865,297.221436 C552.708819,296.934487 552.191652,296.714275 551.544351,296.560791 C550.89705,296.407307 550.086267,296.330566 549.111978,296.330566 L543.506509,296.330566 L543.506509,303.057129 Z M543.506509,293.62793 L549.071939,293.62793 C550.313156,293.62793 551.294103,293.381025 552.01481,292.887207 C552.735517,292.393389 553.095865,291.625982 553.095865,290.584961 C553.095865,289.997718 552.995768,289.507245 552.795572,289.113525 C552.595375,288.719806 552.328451,288.402833 551.99479,288.162598 C551.66113,287.922362 551.284099,287.752198 550.863687,287.6521 C550.443275,287.552001 550.012859,287.501953 549.572427,287.501953 L543.506509,287.501953 L543.506509,293.62793 Z" id="Команда-разработки-с"></path>
        </g>
    </g>
</svg>