<?xml version="1.0" encoding="UTF-8"?>
<svg width="922px" height="700px" viewBox="0 0 922 700" version="1.1" xmlns="http://www.w3.org/2000/svg" xmlns:xlink="http://www.w3.org/1999/xlink">
    <!-- Generator: Sketch 43.1 (39012) - http://www.bohemiancoding.com/sketch -->
    <title>Mib аватар</title>
    <desc>Created with Sketch.</desc>
    <defs>
        <linearGradient x1="100%" y1="100%" x2="0%" y2="0%" id="linearGradient-1">
            <stop stop-color="#272333" offset="0%"></stop>
            <stop stop-color="#000000" offset="100%"></stop>
        </linearGradient>
        <filter x="0.0%" y="0.0%" width="100.0%" height="100.0%" filterUnits="objectBoundingBox" id="filter-2">
            <feGaussianBlur stdDeviation="0" in="SourceGraphic"></feGaussianBlur>
        </filter>
    </defs>
    <g id="Дезигн" stroke="none" stroke-width="1" fill="none" fill-rule="evenodd">
        <g id="Mib-аватар">
            <rect id="Rectangle-4" fill="url(#linearGradient-1)" filter="url(#filter-2)" x="0" y="0" width="922" height="700"></rect>
            <path d="M344.116014,248.082031 L409.008593,248.082031 L409.008593,464 L366.967577,464 L366.967577,317.955078 C366.967577,313.755838 367.016405,307.872108 367.114061,300.303711 C367.211718,292.735314 367.260546,286.900411 367.260546,282.798828 L326.391405,464 L282.592577,464 L242.016405,282.798828 C242.016405,286.900411 242.065233,292.735314 242.162889,300.303711 C242.260546,307.872108 242.309374,313.755838 242.309374,317.955078 L242.309374,464 L200.268358,464 L200.268358,248.082031 L265.893358,248.082031 L305.151171,417.857422 L344.116014,248.082031 Z M499.601328,464 L454.777109,464 L454.777109,248.082031 L499.601328,248.082031 L499.601328,464 Z M592.830782,285.582031 L592.830782,333.189453 L645.858126,333.189453 C655.330829,333.189453 663.021182,331.407244 668.929415,327.842773 C674.837647,324.278302 677.791719,317.955124 677.791719,308.873047 C677.791719,298.814403 673.885508,292.173844 666.072969,288.951172 C659.334654,286.705067 650.74099,285.582031 640.291719,285.582031 L592.830782,285.582031 Z M592.830782,368.931641 L592.830782,426.5 L645.858126,426.5 C655.330829,426.5 662.703802,425.230481 667.977266,422.691406 C677.547627,418.003883 682.332735,409.019598 682.332735,395.738281 C682.332735,384.507756 677.69411,376.79299 668.416719,372.59375 C663.240912,370.249988 655.965594,369.029297 646.590548,368.931641 L592.830782,368.931641 Z M654.647188,248.082031 C681.112164,248.472658 699.861977,256.138597 710.897188,271.080078 C717.537846,280.259812 720.858126,291.24603 720.858126,304.039062 C720.858126,317.222722 717.537846,327.818319 710.897188,335.826172 C707.186232,340.318382 701.717537,344.419903 694.490938,348.130859 C705.52615,352.134786 713.851262,358.482378 719.466524,367.173828 C725.081787,375.865278 727.889376,386.412047 727.889376,398.814453 C727.889376,411.607486 724.666752,423.08198 718.221407,433.238281 C714.119824,439.976596 708.992922,445.640602 702.840548,450.230469 C695.906919,455.503933 687.72829,459.117178 678.304415,461.070312 C668.88054,463.023447 658.65115,464 647.615938,464 L549.764376,464 L549.764376,248.082031 L654.647188,248.082031 Z" id="M-I-B" fill="#FFFFFF"></path>
            <path d="M200.222205,490.571289 L204.146033,490.571289 L204.146033,504.905273 L218.500037,490.571289 L223.985388,490.571289 L211.733435,502.442871 L224.32572,520 L219.280798,520 L208.910681,505.165527 L204.146033,509.75 L204.146033,520 L200.222205,520 L200.222205,490.571289 Z M241.441733,509.249512 C241.441733,508.06168 241.308271,506.970627 241.041342,505.976318 C240.774414,504.98201 240.374027,504.124515 239.84017,503.403809 C239.306314,502.683102 238.649012,502.119224 237.868247,501.712158 C237.087481,501.305092 236.183275,501.101562 235.1556,501.101562 C234.127926,501.101562 233.227056,501.305092 232.452963,501.712158 C231.678871,502.119224 231.024906,502.683102 230.491049,503.403809 C229.957193,504.124515 229.556806,504.98201 229.289877,505.976318 C229.022949,506.970627 228.889487,508.06168 228.889487,509.249512 C228.889487,510.45069 229.022949,511.555089 229.289877,512.562744 C229.556806,513.570399 229.957193,514.434567 230.491049,515.155273 C231.024906,515.87598 231.678871,516.439858 232.452963,516.846924 C233.227056,517.25399 234.127926,517.45752 235.1556,517.45752 C236.183275,517.45752 237.087481,517.25399 237.868247,516.846924 C238.649012,516.439858 239.306314,515.87598 239.84017,515.155273 C240.374027,514.434567 240.774414,513.570399 241.041342,512.562744 C241.308271,511.555089 241.441733,510.45069 241.441733,509.249512 Z M245.125327,509.249512 C245.125327,511.011239 244.898441,512.596103 244.444663,514.00415 C243.990884,515.412198 243.33692,516.610021 242.482749,517.597656 C241.628578,518.585291 240.584236,519.342689 239.349692,519.869873 C238.115148,520.397057 236.717131,520.660645 235.1556,520.660645 C233.594069,520.660645 232.199389,520.397057 230.971518,519.869873 C229.743647,519.342689 228.702642,518.585291 227.848471,517.597656 C226.9943,516.610021 226.340335,515.412198 225.886557,514.00415 C225.432779,512.596103 225.205893,511.011239 225.205893,509.249512 C225.205893,507.514477 225.432779,505.946296 225.886557,504.544922 C226.340335,503.143548 226.9943,501.949061 227.848471,500.961426 C228.702642,499.973791 229.743647,499.216393 230.971518,498.689209 C232.199389,498.162025 233.594069,497.898438 235.1556,497.898438 C236.717131,497.898438 238.115148,498.162025 239.349692,498.689209 C240.584236,499.216393 241.628578,499.973791 242.482749,500.961426 C243.33692,501.949061 243.990884,503.143548 244.444663,504.544922 C244.898441,505.946296 245.125327,507.514477 245.125327,509.249512 Z M248.507941,498.559082 L253.873175,498.559082 L259.538703,516.13623 L259.618781,516.13623 L265.364386,498.559082 L270.409308,498.559082 L270.409308,520 L266.965949,520 L266.965949,502.743164 L266.885871,502.743164 L261.220343,520 L257.696906,520 L252.031378,502.743164 L251.9513,502.743164 L251.9513,520 L248.507941,520 L248.507941,498.559082 Z M275.013114,504.985352 C275.053153,503.677402 275.300058,502.573003 275.753836,501.672119 C276.207615,500.771236 276.821541,500.04053 277.595633,499.47998 C278.369726,498.919431 279.287278,498.515708 280.348319,498.268799 C281.409359,498.02189 282.567144,497.898438 283.821708,497.898438 C284.862728,497.898438 285.873705,498.005207 286.854667,498.21875 C287.835628,498.432293 288.706469,498.775958 289.467215,499.249756 C290.227961,499.723554 290.838551,500.33748 291.299002,501.091553 C291.759454,501.845626 291.989676,502.763178 291.989676,503.844238 L291.989676,516.316406 C291.989676,516.663413 292.0831,516.960367 292.26995,517.207275 C292.4568,517.454184 292.75709,517.577637 293.170829,517.577637 C293.357679,517.577637 293.551199,517.560954 293.751395,517.527588 C293.951591,517.494222 294.158458,517.45752 294.372001,517.41748 L294.372001,519.959961 C294.065033,520.040039 293.761406,520.113444 293.461112,520.180176 C293.160817,520.246908 292.803806,520.280273 292.390067,520.280273 C291.749439,520.280273 291.198907,520.226889 290.738456,520.120117 C290.278004,520.013346 289.890964,519.836508 289.577323,519.5896 C289.263682,519.342691 289.020113,519.022382 288.84661,518.628662 C288.673106,518.234943 288.559664,517.751142 288.506278,517.177246 C288.0525,517.671064 287.572036,518.128172 287.064872,518.548584 C286.557708,518.968996 285.990493,519.336017 285.363211,519.649658 C284.73593,519.963299 284.035253,520.210204 283.261161,520.390381 C282.487068,520.570558 281.612891,520.660645 280.638602,520.660645 C279.811124,520.660645 279.007014,520.527182 278.226249,520.260254 C277.445483,519.993325 276.744806,519.599612 276.124198,519.079102 C275.503589,518.558591 275.006442,517.914636 274.632743,517.147217 C274.259043,516.379798 274.072196,515.488937 274.072196,514.474609 C274.072196,513.366856 274.259043,512.409265 274.632743,511.601807 C275.006442,510.794348 275.49358,510.120364 276.094168,509.579834 C276.694757,509.039304 277.382088,508.622235 278.15618,508.328613 C278.930273,508.034992 279.7177,507.841472 280.518485,507.748047 L286.544364,507.007324 C287.11826,506.940592 287.568695,506.717043 287.895682,506.33667 C288.222669,505.956297 288.386161,505.345707 288.386161,504.504883 C288.386161,503.21028 287.962418,502.279381 287.11492,501.712158 C286.267423,501.144935 285.04958,500.861328 283.461356,500.861328 C281.833093,500.861328 280.618587,501.204993 279.817801,501.892334 C279.017016,502.579675 278.563245,503.61067 278.456473,504.985352 L275.013114,504.985352 Z M288.306083,509.089355 C288.012461,509.302898 287.648777,509.479736 287.215018,509.619873 C286.781259,509.76001 286.304132,509.87679 285.783622,509.970215 C285.263111,510.06364 284.709243,510.147054 284.122001,510.220459 C283.534758,510.293864 282.947524,510.370605 282.360282,510.450684 C281.692961,510.544109 281.079035,510.677571 280.518485,510.851074 C279.957935,511.024578 279.470798,511.251463 279.057059,511.531738 C278.64332,511.812013 278.323011,512.149005 278.096122,512.542725 C277.869232,512.936444 277.75579,513.400225 277.75579,513.934082 C277.75579,514.548017 277.85255,515.088539 278.046073,515.555664 C278.239596,516.022789 278.50652,516.416502 278.846854,516.736816 C279.187188,517.057131 279.597584,517.297362 280.078055,517.45752 C280.558526,517.617677 281.085702,517.697754 281.659598,517.697754 C282.019952,517.697754 282.433684,517.654379 282.900809,517.567627 C283.367934,517.480875 283.848398,517.35075 284.342215,517.177246 C284.836033,517.003743 285.319833,516.780193 285.793631,516.506592 C286.267429,516.23299 286.691172,515.902671 287.064872,515.515625 C287.438571,515.128579 287.738861,514.688154 287.965751,514.194336 C288.19264,513.700518 288.306083,513.14665 288.306083,512.532715 L288.306083,509.089355 Z M297.09397,498.559082 L300.777564,498.559082 L300.777564,507.20752 L310.78733,507.20752 L310.78733,498.559082 L314.490943,498.559082 L314.490943,520 L310.78733,520 L310.78733,510.410645 L300.777564,510.410645 L300.777564,520 L297.09397,520 L297.09397,498.559082 Z M337.012229,520 L320.436057,520 L320.436057,525.245117 L316.992698,525.245117 L316.992698,516.796875 L319.815452,516.796875 C320.402694,515.355462 320.869812,513.884041 321.216819,512.382568 C321.563826,510.881096 321.83075,509.3663 322.0176,507.838135 C322.20445,506.30997 322.324566,504.771818 322.377952,503.223633 C322.431337,501.675448 322.45803,500.120613 322.45803,498.559082 L337.432639,498.559082 L337.432639,516.796875 L340.455588,516.796875 L340.455588,525.245117 L337.012229,525.245117 L337.012229,520 Z M333.749045,516.796875 L333.749045,501.762207 L325.981467,501.762207 C325.888042,502.976731 325.791282,504.224603 325.691184,505.505859 C325.591086,506.787116 325.457624,508.07169 325.290793,509.359619 C325.123963,510.647549 324.903751,511.918776 324.630149,513.17334 C324.356547,514.427903 323.999536,515.635736 323.559104,516.796875 L333.749045,516.796875 Z M343.177558,504.985352 C343.217597,503.677402 343.464502,502.573003 343.918281,501.672119 C344.372059,500.771236 344.985985,500.04053 345.760078,499.47998 C346.53417,498.919431 347.451723,498.515708 348.512763,498.268799 C349.573804,498.02189 350.731588,497.898438 351.986152,497.898438 C353.027173,497.898438 354.038149,498.005207 355.019111,498.21875 C356.000073,498.432293 356.870914,498.775958 357.63166,499.249756 C358.392406,499.723554 359.002995,500.33748 359.463447,501.091553 C359.923898,501.845626 360.154121,502.763178 360.154121,503.844238 L360.154121,516.316406 C360.154121,516.663413 360.247544,516.960367 360.434394,517.207275 C360.621244,517.454184 360.921534,517.577637 361.335273,517.577637 C361.522123,517.577637 361.715643,517.560954 361.915839,517.527588 C362.116036,517.494222 362.322902,517.45752 362.536445,517.41748 L362.536445,519.959961 C362.229477,520.040039 361.925851,520.113444 361.625556,520.180176 C361.325262,520.246908 360.96825,520.280273 360.554511,520.280273 C359.913883,520.280273 359.363351,520.226889 358.9029,520.120117 C358.442448,520.013346 358.055408,519.836508 357.741767,519.5896 C357.428126,519.342691 357.184558,519.022382 357.011054,518.628662 C356.837551,518.234943 356.724108,517.751142 356.670722,517.177246 C356.216944,517.671064 355.73648,518.128172 355.229316,518.548584 C354.722152,518.968996 354.154938,519.336017 353.527656,519.649658 C352.900374,519.963299 352.199697,520.210204 351.425605,520.390381 C350.651513,520.570558 349.777335,520.660645 348.803046,520.660645 C347.975568,520.660645 347.171459,520.527182 346.390693,520.260254 C345.609927,519.993325 344.909251,519.599612 344.288642,519.079102 C343.668034,518.558591 343.170887,517.914636 342.797187,517.147217 C342.423487,516.379798 342.23664,515.488937 342.23664,514.474609 C342.23664,513.366856 342.423487,512.409265 342.797187,511.601807 C343.170887,510.794348 343.658024,510.120364 344.258613,509.579834 C344.859202,509.039304 345.546532,508.622235 346.320625,508.328613 C347.094717,508.034992 347.882144,507.841472 348.682929,507.748047 L354.708808,507.007324 C355.282704,506.940592 355.733139,506.717043 356.060126,506.33667 C356.387114,505.956297 356.550605,505.345707 356.550605,504.504883 C356.550605,503.21028 356.126862,502.279381 355.279365,501.712158 C354.431867,501.144935 353.214024,500.861328 351.6258,500.861328 C349.997537,500.861328 348.783031,501.204993 347.982246,501.892334 C347.18146,502.579675 346.727689,503.61067 346.620917,504.985352 L343.177558,504.985352 Z M356.470527,509.089355 C356.176906,509.302898 355.813221,509.479736 355.379462,509.619873 C354.945704,509.76001 354.468576,509.87679 353.948066,509.970215 C353.427556,510.06364 352.873687,510.147054 352.286445,510.220459 C351.699202,510.293864 351.111969,510.370605 350.524726,510.450684 C349.857405,510.544109 349.243479,510.677571 348.682929,510.851074 C348.12238,511.024578 347.635242,511.251463 347.221503,511.531738 C346.807764,511.812013 346.487455,512.149005 346.260566,512.542725 C346.033677,512.936444 345.920234,513.400225 345.920234,513.934082 C345.920234,514.548017 346.016994,515.088539 346.210517,515.555664 C346.40404,516.022789 346.670965,516.416502 347.011298,516.736816 C347.351632,517.057131 347.762028,517.297362 348.2425,517.45752 C348.722971,517.617677 349.250146,517.697754 349.824042,517.697754 C350.184396,517.697754 350.598129,517.654379 351.065253,517.567627 C351.532378,517.480875 352.012842,517.35075 352.50666,517.177246 C353.000477,517.003743 353.484278,516.780193 353.958076,516.506592 C354.431874,516.23299 354.855616,515.902671 355.229316,515.515625 C355.603016,515.128579 355.903306,514.688154 356.130195,514.194336 C356.357084,513.700518 356.470527,513.14665 356.470527,512.532715 L356.470527,509.089355 Z M375.687904,498.559082 L379.371498,498.559082 L379.371498,501.501953 L379.451576,501.501953 C379.691811,501.008136 379.995438,500.541018 380.362464,500.100586 C380.729491,499.660154 381.169916,499.27645 381.683753,498.949463 C382.197591,498.622476 382.791497,498.365561 383.465492,498.178711 C384.139486,497.991861 384.91023,497.898438 385.777748,497.898438 C386.92554,497.898438 388.026603,498.11865 389.08097,498.559082 C390.135337,498.999514 391.069573,499.660152 391.883705,500.541016 C392.697836,501.421879 393.345128,502.526279 393.825599,503.854248 C394.30607,505.182217 394.546302,506.727042 394.546302,508.48877 C394.546302,510.690929 394.322753,512.562736 393.875648,514.104248 C393.428543,515.64576 392.794597,516.903641 391.973792,517.87793 C391.152988,518.852218 390.162031,519.559568 389.000892,520 C387.839753,520.440432 386.54517,520.660645 385.117103,520.660645 C384.409743,520.660645 383.749105,520.567221 383.135169,520.380371 C382.521234,520.193521 381.970702,519.949953 381.483558,519.649658 C380.996414,519.349364 380.579344,519.015708 380.232337,518.648682 C379.88533,518.281655 379.625079,517.924644 379.451576,517.577637 L379.371498,517.577637 L379.371498,528.448242 L375.687904,528.448242 L375.687904,498.559082 Z M379.291419,509.389648 C379.291419,510.550787 379.404862,511.621821 379.631751,512.602783 C379.858641,513.583745 380.208979,514.434567 380.682777,515.155273 C381.156575,515.87598 381.750482,516.439858 382.464515,516.846924 C383.178549,517.25399 384.022697,517.45752 384.996986,517.45752 C386.011314,517.45752 386.888828,517.25399 387.629554,516.846924 C388.370281,516.439858 388.98087,515.87598 389.461341,515.155273 C389.941812,514.434567 390.295487,513.583745 390.522376,512.602783 C390.749266,511.621821 390.862709,510.550787 390.862709,509.389648 C390.862709,508.175124 390.749266,507.060715 390.522376,506.046387 C390.295487,505.032059 389.941812,504.157881 389.461341,503.423828 C388.98087,502.689775 388.370281,502.119224 387.629554,501.712158 C386.888828,501.305092 386.011314,501.101562 384.996986,501.101562 C384.022697,501.101562 383.178549,501.305092 382.464515,501.712158 C381.750482,502.119224 381.156575,502.689775 380.682777,503.423828 C380.208979,504.157881 379.858641,505.032059 379.631751,506.046387 C379.404862,507.060715 379.291419,508.175124 379.291419,509.389648 Z M397.888877,504.985352 C397.928917,503.677402 398.175822,502.573003 398.6296,501.672119 C399.083378,500.771236 399.697305,500.04053 400.471397,499.47998 C401.245489,498.919431 402.163042,498.515708 403.224083,498.268799 C404.285123,498.02189 405.442908,497.898438 406.697471,497.898438 C407.738492,497.898438 408.749468,498.005207 409.73043,498.21875 C410.711392,498.432293 411.582233,498.775958 412.342979,499.249756 C413.103725,499.723554 413.714315,500.33748 414.174766,501.091553 C414.635218,501.845626 414.86544,502.763178 414.86544,503.844238 L414.86544,516.316406 C414.86544,516.663413 414.958863,516.960367 415.145713,517.207275 C415.332563,517.454184 415.632853,517.577637 416.046592,517.577637 C416.233442,517.577637 416.426962,517.560954 416.627159,517.527588 C416.827355,517.494222 417.034221,517.45752 417.247764,517.41748 L417.247764,519.959961 C416.940796,520.040039 416.63717,520.113444 416.336875,520.180176 C416.036581,520.246908 415.67957,520.280273 415.265831,520.280273 C414.625202,520.280273 414.074671,520.226889 413.614219,520.120117 C413.153768,520.013346 412.766727,519.836508 412.453086,519.5896 C412.139446,519.342691 411.895877,519.022382 411.722374,518.628662 C411.54887,518.234943 411.435427,517.751142 411.382042,517.177246 C410.928263,517.671064 410.447799,518.128172 409.940635,518.548584 C409.433471,518.968996 408.866257,519.336017 408.238975,519.649658 C407.611693,519.963299 406.911017,520.210204 406.136924,520.390381 C405.362832,520.570558 404.488654,520.660645 403.514366,520.660645 C402.686888,520.660645 401.882778,520.527182 401.102012,520.260254 C400.321247,519.993325 399.62057,519.599612 398.999961,519.079102 C398.379353,518.558591 397.882206,517.914636 397.508506,517.147217 C397.134807,516.379798 396.947959,515.488937 396.947959,514.474609 C396.947959,513.366856 397.134807,512.409265 397.508506,511.601807 C397.882206,510.794348 398.369343,510.120364 398.969932,509.579834 C399.570521,509.039304 400.257851,508.622235 401.031944,508.328613 C401.806036,508.034992 402.593463,507.841472 403.394249,507.748047 L409.420127,507.007324 C409.994024,506.940592 410.444458,506.717043 410.771446,506.33667 C411.098433,505.956297 411.261924,505.345707 411.261924,504.504883 C411.261924,503.21028 410.838182,502.279381 409.990684,501.712158 C409.143186,501.144935 407.925344,500.861328 406.33712,500.861328 C404.708856,500.861328 403.49435,501.204993 402.693565,501.892334 C401.89278,502.579675 401.439008,503.61067 401.332237,504.985352 L397.888877,504.985352 Z M411.181846,509.089355 C410.888225,509.302898 410.52454,509.479736 410.090782,509.619873 C409.657023,509.76001 409.179896,509.87679 408.659385,509.970215 C408.138875,510.06364 407.585007,510.147054 406.997764,510.220459 C406.410522,510.293864 405.823288,510.370605 405.236045,510.450684 C404.568724,510.544109 403.954798,510.677571 403.394249,510.851074 C402.833699,511.024578 402.346562,511.251463 401.932823,511.531738 C401.519084,511.812013 401.198774,512.149005 400.971885,512.542725 C400.744996,512.936444 400.631553,513.400225 400.631553,513.934082 C400.631553,514.548017 400.728313,515.088539 400.921836,515.555664 C401.11536,516.022789 401.382284,516.416502 401.722618,516.736816 C402.062951,517.057131 402.473348,517.297362 402.953819,517.45752 C403.43429,517.617677 403.961466,517.697754 404.535362,517.697754 C404.895715,517.697754 405.309448,517.654379 405.776573,517.567627 C406.243697,517.480875 406.724161,517.35075 407.217979,517.177246 C407.711797,517.003743 408.195597,516.780193 408.669395,516.506592 C409.143193,516.23299 409.566935,515.902671 409.940635,515.515625 C410.314335,515.128579 410.614625,514.688154 410.841514,514.194336 C411.068403,513.700518 411.181846,513.14665 411.181846,512.532715 L411.181846,509.089355 Z M425.515144,507.60791 L427.37696,507.60791 C427.870778,507.60791 428.384608,507.547852 428.918464,507.427734 C429.452321,507.307617 429.939458,507.117433 430.37989,506.857178 C430.820322,506.596923 431.184007,506.25993 431.470955,505.846191 C431.757903,505.432452 431.901375,504.931969 431.901375,504.344727 C431.901375,503.917641 431.811288,503.507245 431.631111,503.113525 C431.450934,502.719806 431.18401,502.372804 430.83033,502.07251 C430.476649,501.772215 430.032888,501.53532 429.499031,501.361816 C428.965174,501.188313 428.344575,501.101562 427.637214,501.101562 C427.263515,501.101562 426.823089,501.154947 426.315925,501.261719 C425.808761,501.36849 425.311615,501.565347 424.82447,501.852295 C424.337326,502.139243 423.903574,502.546303 423.523201,503.073486 C423.142828,503.60067 422.899259,504.284664 422.792488,505.125488 L419.349128,505.125488 C419.442553,504.164546 419.636074,503.320398 419.929695,502.593018 C420.223316,501.865638 420.590337,501.235029 421.030769,500.701172 C421.471201,500.167315 421.968348,499.720217 422.522224,499.359863 C423.076101,498.99951 423.649988,498.712566 424.243904,498.499023 C424.83782,498.285481 425.435063,498.131999 426.035652,498.038574 C426.636241,497.945149 427.210128,497.898438 427.757332,497.898438 C428.718274,497.898438 429.665856,498.02189 430.600105,498.268799 C431.534354,498.515708 432.37183,498.889402 433.112556,499.389893 C433.853283,499.890383 434.450526,500.520992 434.904304,501.281738 C435.358083,502.042484 435.584968,502.930008 435.584968,503.944336 C435.584968,504.598311 435.491545,505.175535 435.304695,505.676025 C435.117845,506.176516 434.874276,506.613605 434.573982,506.987305 C434.273687,507.361004 433.936695,507.677977 433.562996,507.938232 C433.189296,508.198488 432.822275,508.415364 432.461921,508.588867 L432.461921,508.688965 C432.835621,508.755697 433.249354,508.892496 433.703132,509.099365 C434.156911,509.306235 434.577317,509.599852 434.964363,509.980225 C435.351409,510.360598 435.675055,510.847735 435.93531,511.44165 C436.195565,512.035566 436.325691,512.759599 436.325691,513.61377 C436.325691,514.814947 436.068776,515.855953 435.554939,516.736816 C435.041102,517.61768 434.370454,518.348386 433.542976,518.928955 C432.715498,519.509524 431.781263,519.943277 430.740242,520.230225 C429.699221,520.517173 428.651543,520.660645 427.597175,520.660645 C426.23584,520.660645 425.004652,520.487144 423.903572,520.140137 C422.802492,519.79313 421.851574,519.29932 421.050789,518.658691 C420.250003,518.018063 419.612721,517.250656 419.138923,516.356445 C418.665125,515.462235 418.381518,514.474615 418.288093,513.393555 L421.991707,513.393555 C422.085131,514.180994 422.312017,514.834958 422.672371,515.355469 C423.032724,515.875979 423.466476,516.289712 423.97364,516.59668 C424.480804,516.903647 425.044682,517.12386 425.665291,517.257324 C426.285899,517.390788 426.916508,517.45752 427.557136,517.45752 C429.252132,517.45752 430.523359,517.117191 431.370857,516.436523 C432.218355,515.755856 432.642097,514.84164 432.642097,513.693848 C432.642097,513.20003 432.565356,512.759605 432.411873,512.372559 C432.258389,511.985512 432.001474,511.655193 431.641121,511.381592 C431.280767,511.10799 430.80364,510.901124 430.209724,510.760986 C429.615808,510.620849 428.87843,510.550781 427.997566,510.550781 C427.824062,510.550781 427.627206,510.554118 427.40699,510.560791 C427.186774,510.567464 426.966561,510.577474 426.746345,510.59082 C426.526129,510.604167 426.309253,510.62085 426.09571,510.640869 C425.882168,510.660889 425.688648,510.677572 425.515144,510.690918 L425.515144,507.60791 Z M439.50811,498.559082 L443.191704,498.559082 L443.191704,501.501953 L443.271782,501.501953 C443.512017,501.008136 443.815644,500.541018 444.18267,500.100586 C444.549697,499.660154 444.990122,499.27645 445.503959,498.949463 C446.017797,498.622476 446.611704,498.365561 447.285698,498.178711 C447.959692,497.991861 448.730436,497.898438 449.597954,497.898438 C450.745746,497.898438 451.846809,498.11865 452.901176,498.559082 C453.955544,498.999514 454.889779,499.660152 455.703911,500.541016 C456.518042,501.421879 457.165334,502.526279 457.645805,503.854248 C458.126276,505.182217 458.366508,506.727042 458.366508,508.48877 C458.366508,510.690929 458.142959,512.562736 457.695854,514.104248 C457.248749,515.64576 456.614803,516.903641 455.793999,517.87793 C454.973194,518.852218 453.982237,519.559568 452.821098,520 C451.65996,520.440432 450.365376,520.660645 448.937309,520.660645 C448.229949,520.660645 447.569311,520.567221 446.955375,520.380371 C446.34144,520.193521 445.790909,519.949953 445.303764,519.649658 C444.81662,519.349364 444.39955,519.015708 444.052543,518.648682 C443.705537,518.281655 443.445285,517.924644 443.271782,517.577637 L443.191704,517.577637 L443.191704,528.448242 L439.50811,528.448242 L439.50811,498.559082 Z M443.111625,509.389648 C443.111625,510.550787 443.225068,511.621821 443.451958,512.602783 C443.678847,513.583745 444.029185,514.434567 444.502983,515.155273 C444.976781,515.87598 445.570688,516.439858 446.284721,516.846924 C446.998755,517.25399 447.842903,517.45752 448.817192,517.45752 C449.83152,517.45752 450.709034,517.25399 451.44976,516.846924 C452.190487,516.439858 452.801076,515.87598 453.281547,515.155273 C453.762019,514.434567 454.115693,513.583745 454.342583,512.602783 C454.569472,511.621821 454.682915,510.550787 454.682915,509.389648 C454.682915,508.175124 454.569472,507.060715 454.342583,506.046387 C454.115693,505.032059 453.762019,504.157881 453.281547,503.423828 C452.801076,502.689775 452.190487,502.119224 451.44976,501.712158 C450.709034,501.305092 449.83152,501.101562 448.817192,501.101562 C447.842903,501.101562 446.998755,501.305092 446.284721,501.712158 C445.570688,502.119224 444.976781,502.689775 444.502983,503.423828 C444.029185,504.157881 443.678847,505.032059 443.451958,506.046387 C443.225068,507.060715 443.111625,508.175124 443.111625,509.389648 Z M461.709083,504.985352 C461.749123,503.677402 461.996028,502.573003 462.449806,501.672119 C462.903584,500.771236 463.517511,500.04053 464.291603,499.47998 C465.065695,498.919431 465.983248,498.515708 467.044289,498.268799 C468.105329,498.02189 469.263114,497.898438 470.517677,497.898438 C471.558698,497.898438 472.569674,498.005207 473.550636,498.21875 C474.531598,498.432293 475.402439,498.775958 476.163185,499.249756 C476.923931,499.723554 477.534521,500.33748 477.994972,501.091553 C478.455424,501.845626 478.685646,502.763178 478.685646,503.844238 L478.685646,516.316406 C478.685646,516.663413 478.77907,516.960367 478.965919,517.207275 C479.152769,517.454184 479.453059,517.577637 479.866798,517.577637 C480.053648,517.577637 480.247168,517.560954 480.447365,517.527588 C480.647561,517.494222 480.854427,517.45752 481.06797,517.41748 L481.06797,519.959961 C480.761003,520.040039 480.457376,520.113444 480.157082,520.180176 C479.856787,520.246908 479.499776,520.280273 479.086037,520.280273 C478.445408,520.280273 477.894877,520.226889 477.434425,520.120117 C476.973974,520.013346 476.586933,519.836508 476.273292,519.5896 C475.959652,519.342691 475.716083,519.022382 475.54258,518.628662 C475.369076,518.234943 475.255633,517.751142 475.202248,517.177246 C474.748469,517.671064 474.268005,518.128172 473.760841,518.548584 C473.253677,518.968996 472.686463,519.336017 472.059181,519.649658 C471.431899,519.963299 470.731223,520.210204 469.95713,520.390381 C469.183038,520.570558 468.308861,520.660645 467.334572,520.660645 C466.507094,520.660645 465.702984,520.527182 464.922218,520.260254 C464.141453,519.993325 463.440776,519.599612 462.820167,519.079102 C462.199559,518.558591 461.702412,517.914636 461.328712,517.147217 C460.955013,516.379798 460.768166,515.488937 460.768166,514.474609 C460.768166,513.366856 460.955013,512.409265 461.328712,511.601807 C461.702412,510.794348 462.189549,510.120364 462.790138,509.579834 C463.390727,509.039304 464.078057,508.622235 464.85215,508.328613 C465.626242,508.034992 466.413669,507.841472 467.214455,507.748047 L473.240333,507.007324 C473.81423,506.940592 474.264665,506.717043 474.591652,506.33667 C474.918639,505.956297 475.08213,505.345707 475.08213,504.504883 C475.08213,503.21028 474.658388,502.279381 473.81089,501.712158 C472.963392,501.144935 471.74555,500.861328 470.157326,500.861328 C468.529062,500.861328 467.314556,501.204993 466.513771,501.892334 C465.712986,502.579675 465.259214,503.61067 465.152443,504.985352 L461.709083,504.985352 Z M475.002052,509.089355 C474.708431,509.302898 474.344746,509.479736 473.910988,509.619873 C473.477229,509.76001 473.000102,509.87679 472.479591,509.970215 C471.959081,510.06364 471.405213,510.147054 470.81797,510.220459 C470.230728,510.293864 469.643494,510.370605 469.056251,510.450684 C468.38893,510.544109 467.775004,510.677571 467.214455,510.851074 C466.653905,511.024578 466.166768,511.251463 465.753029,511.531738 C465.33929,511.812013 465.01898,512.149005 464.792091,512.542725 C464.565202,512.936444 464.451759,513.400225 464.451759,513.934082 C464.451759,514.548017 464.548519,515.088539 464.742042,515.555664 C464.935566,516.022789 465.20249,516.416502 465.542824,516.736816 C465.883157,517.057131 466.293554,517.297362 466.774025,517.45752 C467.254496,517.617677 467.781672,517.697754 468.355568,517.697754 C468.715921,517.697754 469.129654,517.654379 469.596779,517.567627 C470.063904,517.480875 470.544367,517.35075 471.038185,517.177246 C471.532003,517.003743 472.015803,516.780193 472.489601,516.506592 C472.963399,516.23299 473.387142,515.902671 473.760841,515.515625 C474.134541,515.128579 474.434831,514.688154 474.66172,514.194336 C474.888609,513.700518 475.002052,513.14665 475.002052,512.532715 L475.002052,509.089355 Z M500.44619,490.311035 C500.419497,490.511231 500.382795,490.7548 500.336083,491.041748 C500.28937,491.328696 500.199283,491.632323 500.065819,491.952637 C499.932355,492.272951 499.748844,492.596597 499.515282,492.923584 C499.281719,493.250571 498.97142,493.554198 498.584374,493.834473 C498.370831,493.981283 498.177311,494.108072 498.003807,494.214844 C497.830304,494.321615 497.610091,494.415039 497.343163,494.495117 C497.076234,494.575196 496.735906,494.641927 496.322167,494.695312 C495.908427,494.748698 495.354559,494.782064 494.660545,494.79541 L493.139061,494.835449 C492.09804,494.862142 491.160468,495.072345 490.326317,495.466064 C489.492166,495.859784 488.758123,496.406979 488.124168,497.107666 C487.490213,497.808353 486.966374,498.652502 486.552635,499.640137 C486.138896,500.627772 485.831933,501.728835 485.631737,502.943359 C485.912012,502.409503 486.259013,501.885663 486.672752,501.371826 C487.086491,500.857989 487.600321,500.397544 488.214256,499.990479 C488.828192,499.583413 489.548888,499.25643 490.376366,499.009521 C491.203844,498.762613 492.164772,498.63916 493.259178,498.63916 C494.500395,498.63916 495.678199,498.859373 496.792625,499.299805 C497.907052,499.740237 498.881326,500.400875 499.715477,501.281738 C500.549628,502.162602 501.213603,503.256992 501.70742,504.564941 C502.201238,505.872891 502.448143,507.39436 502.448143,509.129395 C502.448143,509.676598 502.408104,510.340572 502.328026,511.121338 C502.247947,511.902104 502.087793,512.71956 501.847557,513.57373 C501.607322,514.427901 501.263656,515.278723 500.816551,516.126221 C500.369446,516.973718 499.775539,517.731116 499.034813,518.398438 C498.294087,519.065759 497.393217,519.609617 496.332176,520.030029 C495.271136,520.450442 493.999908,520.660645 492.518456,520.660645 C491.90452,520.660645 491.253892,520.610596 490.566551,520.510498 C489.879211,520.4104 489.19188,520.226889 488.50454,519.959961 C487.817199,519.693033 487.149888,519.319338 486.502586,518.838867 C485.855285,518.358396 485.264715,517.74447 484.730858,516.99707 C484.463929,516.623371 484.200342,516.192955 483.940086,515.705811 C483.679831,515.218666 483.442936,514.628096 483.229393,513.934082 C483.01585,513.240068 482.845686,512.419276 482.718895,511.47168 C482.592104,510.524084 482.528709,509.403001 482.528709,508.108398 C482.528709,507.254228 482.568748,506.286626 482.648827,505.205566 C482.728905,504.124506 482.869041,503.023443 483.069237,501.902344 C483.269433,500.781244 483.536358,499.696864 483.870018,498.64917 C484.203679,497.601476 484.630758,496.683923 485.151268,495.896484 C485.711818,495.042313 486.299051,494.34831 486.912987,493.814453 C487.526922,493.280596 488.180887,492.86019 488.874901,492.553223 C489.568915,492.246255 490.316303,492.026042 491.117088,491.892578 C491.917874,491.759114 492.785378,491.672363 493.719627,491.632324 L495.020897,491.592285 C495.447982,491.578939 495.811667,491.555583 496.111961,491.522217 C496.412256,491.488851 496.662498,491.432129 496.862694,491.352051 C497.06289,491.271972 497.223045,491.151856 497.343163,490.991699 C497.46328,490.831542 497.563377,490.604656 497.643456,490.311035 L500.44619,490.311035 Z M486.212303,509.669922 C486.212303,510.070315 486.235659,510.544105 486.282372,511.091309 C486.329084,511.638512 486.425844,512.209063 486.572655,512.802979 C486.719465,513.396894 486.933005,513.987465 487.21328,514.574707 C487.493555,515.16195 487.863912,515.685789 488.324364,516.14624 C488.784815,516.606692 489.355366,516.980386 490.036034,517.267334 C490.716701,517.554282 491.530821,517.697754 492.478417,517.697754 C493.532784,517.697754 494.420307,517.52759 495.141014,517.187256 C495.861721,516.846922 496.455628,516.406497 496.922752,515.865967 C497.389877,515.325437 497.746889,514.728193 497.993797,514.074219 C498.240706,513.420244 498.42088,512.782962 498.534325,512.162354 C498.647769,511.541745 498.7145,510.974531 498.73452,510.460693 C498.75454,509.946856 498.764549,509.556479 498.764549,509.289551 C498.764549,508.315262 498.654443,507.361007 498.434227,506.426758 C498.214011,505.492508 497.860336,504.665043 497.373192,503.944336 C496.886048,503.223629 496.252102,502.643069 495.471336,502.202637 C494.690571,501.762205 493.732979,501.541992 492.598534,501.541992 C491.490781,501.541992 490.536526,501.758868 489.735741,502.192627 C488.934955,502.626386 488.274318,503.213619 487.753807,503.954346 C487.233297,504.695072 486.846256,505.555903 486.592674,506.536865 C486.339092,507.517827 486.212303,508.562169 486.212303,509.669922 Z M520.805367,509.249512 C520.805367,508.06168 520.671904,506.970627 520.404976,505.976318 C520.138048,504.98201 519.737661,504.124515 519.203804,503.403809 C518.669947,502.683102 518.012646,502.119224 517.23188,501.712158 C516.451115,501.305092 515.546908,501.101562 514.519234,501.101562 C513.491559,501.101562 512.59069,501.305092 511.816597,501.712158 C511.042505,502.119224 510.38854,502.683102 509.854683,503.403809 C509.320826,504.124515 508.92044,504.98201 508.653511,505.976318 C508.386583,506.970627 508.253121,508.06168 508.253121,509.249512 C508.253121,510.45069 508.386583,511.555089 508.653511,512.562744 C508.92044,513.570399 509.320826,514.434567 509.854683,515.155273 C510.38854,515.87598 511.042505,516.439858 511.816597,516.846924 C512.59069,517.25399 513.491559,517.45752 514.519234,517.45752 C515.546908,517.45752 516.451115,517.25399 517.23188,516.846924 C518.012646,516.439858 518.669947,515.87598 519.203804,515.155273 C519.737661,514.434567 520.138048,513.570399 520.404976,512.562744 C520.671904,511.555089 520.805367,510.45069 520.805367,509.249512 Z M524.48896,509.249512 C524.48896,511.011239 524.262075,512.596103 523.808296,514.00415 C523.354518,515.412198 522.700553,516.610021 521.846382,517.597656 C520.992211,518.585291 519.94787,519.342689 518.713326,519.869873 C517.478782,520.397057 516.080765,520.660645 514.519234,520.660645 C512.957703,520.660645 511.563023,520.397057 510.335152,519.869873 C509.107281,519.342689 508.066276,518.585291 507.212105,517.597656 C506.357934,516.610021 505.703969,515.412198 505.250191,514.00415 C504.796413,512.596103 504.569527,511.011239 504.569527,509.249512 C504.569527,507.514477 504.796413,505.946296 505.250191,504.544922 C505.703969,503.143548 506.357934,501.949061 507.212105,500.961426 C508.066276,499.973791 509.107281,499.216393 510.335152,498.689209 C511.563023,498.162025 512.957703,497.898438 514.519234,497.898438 C516.080765,497.898438 517.478782,498.162025 518.713326,498.689209 C519.94787,499.216393 520.992211,499.973791 521.846382,500.961426 C522.700553,501.949061 523.354518,503.143548 523.808296,504.544922 C524.262075,505.946296 524.48896,507.514477 524.48896,509.249512 Z M533.577141,501.762207 L526.189934,501.762207 L526.189934,498.559082 L544.647942,498.559082 L544.647942,501.762207 L537.260735,501.762207 L537.260735,520 L533.577141,520 L533.577141,501.762207 Z M547.610146,498.559082 L551.29374,498.559082 L551.29374,508.929199 L562.124306,498.559082 L566.949013,498.559082 L556.879189,508.02832 L567.109169,520 L562.364541,520 L553.996376,510.270508 L551.29374,512.532715 L551.29374,520 L547.610146,520 L547.610146,498.559082 Z M569.310631,498.559082 L572.994225,498.559082 L572.994225,514.995117 L573.074303,514.995117 L583.604577,498.559082 L587.828698,498.559082 L587.828698,520 L584.125084,520 L584.125084,503.563965 L584.045006,503.563965 L573.534752,520 L569.310631,520 L569.310631,498.559082 Z M619.958672,512.452637 C619.905287,512.973147 619.801853,513.540362 619.64837,514.154297 C619.494886,514.768232 619.271337,515.378822 618.977715,515.986084 C618.684094,516.593346 618.307063,517.177243 617.846612,517.737793 C617.38616,518.298343 616.825619,518.795489 616.164971,519.229248 C615.504323,519.663007 614.726906,520.010008 613.832696,520.270264 C612.938486,520.530519 611.9175,520.660645 610.769708,520.660645 C610.142426,520.660645 609.481788,520.583904 608.787774,520.43042 C608.09376,520.276936 607.416439,520.020021 606.755791,519.659668 C606.095144,519.299315 605.467871,518.835533 604.873956,518.268311 C604.28004,517.701088 603.759537,516.997075 603.312432,516.15625 C602.865327,515.315425 602.508316,514.337815 602.241387,513.223389 C601.974459,512.108963 601.840997,510.831062 601.840997,509.389648 C601.840997,507.614574 602.094575,506.016365 602.601739,504.594971 C603.108903,503.173577 603.786223,501.96908 604.633721,500.981445 C605.481219,499.99381 606.468839,499.233076 607.596612,498.699219 C608.724384,498.165362 609.908861,497.898438 611.150079,497.898438 C612.271178,497.898438 613.262135,498.018553 614.122979,498.258789 C614.983823,498.499025 615.734548,498.819334 616.375176,499.219727 C617.015804,499.620119 617.556326,500.0839 617.996758,500.611084 C618.43719,501.138268 618.794202,501.692136 619.067803,502.272705 C619.341405,502.853274 619.548271,503.443845 619.688409,504.044434 C619.828546,504.645023 619.918633,505.21891 619.958672,505.766113 L616.515313,505.766113 C616.328463,504.311353 615.824643,503.170252 615.003838,502.342773 C614.183033,501.515295 613.031922,501.101562 611.550469,501.101562 C610.536141,501.101562 609.651954,501.308429 608.897881,501.722168 C608.143809,502.135907 607.516536,502.713131 607.016045,503.453857 C606.515555,504.194584 606.14186,505.088781 605.894952,506.136475 C605.648043,507.184169 605.52459,508.33528 605.52459,509.589844 C605.52459,511.004564 605.658053,512.222407 605.924981,513.243408 C606.191909,514.264409 606.572277,515.105221 607.066094,515.765869 C607.559912,516.426517 608.163828,516.913654 608.877862,517.227295 C609.591895,517.540936 610.402678,517.697754 611.310235,517.697754 C611.950863,517.697754 612.558116,517.580974 613.132012,517.347412 C613.705908,517.11385 614.219738,516.773521 614.673516,516.326416 C615.127294,515.879311 615.514335,515.328779 615.834649,514.674805 C616.154963,514.02083 616.381849,513.280115 616.515313,512.452637 L619.958672,512.452637 Z M622.800759,504.985352 C622.840799,503.677402 623.087704,502.573003 623.541482,501.672119 C623.99526,500.771236 624.609186,500.04053 625.383279,499.47998 C626.157371,498.919431 627.074924,498.515708 628.135964,498.268799 C629.197005,498.02189 630.354789,497.898438 631.609353,497.898438 C632.650374,497.898438 633.66135,498.005207 634.642312,498.21875 C635.623274,498.432293 636.494115,498.775958 637.254861,499.249756 C638.015607,499.723554 638.626196,500.33748 639.086648,501.091553 C639.547099,501.845626 639.777322,502.763178 639.777322,503.844238 L639.777322,516.316406 C639.777322,516.663413 639.870745,516.960367 640.057595,517.207275 C640.244445,517.454184 640.544735,517.577637 640.958474,517.577637 C641.145324,517.577637 641.338844,517.560954 641.539041,517.527588 C641.739237,517.494222 641.946103,517.45752 642.159646,517.41748 L642.159646,519.959961 C641.852678,520.040039 641.549052,520.113444 641.248757,520.180176 C640.948463,520.246908 640.591451,520.280273 640.177712,520.280273 C639.537084,520.280273 638.986553,520.226889 638.526101,520.120117 C638.06565,520.013346 637.678609,519.836508 637.364968,519.5896 C637.051327,519.342691 636.807759,519.022382 636.634255,518.628662 C636.460752,518.234943 636.347309,517.751142 636.293923,517.177246 C635.840145,517.671064 635.359681,518.128172 634.852517,518.548584 C634.345353,518.968996 633.778139,519.336017 633.150857,519.649658 C632.523575,519.963299 631.822899,520.210204 631.048806,520.390381 C630.274714,520.570558 629.400536,520.660645 628.426248,520.660645 C627.598769,520.660645 626.79466,520.527182 626.013894,520.260254 C625.233128,519.993325 624.532452,519.599612 623.911843,519.079102 C623.291235,518.558591 622.794088,517.914636 622.420388,517.147217 C622.046688,516.379798 621.859841,515.488937 621.859841,514.474609 C621.859841,513.366856 622.046688,512.409265 622.420388,511.601807 C622.794088,510.794348 623.281225,510.120364 623.881814,509.579834 C624.482403,509.039304 625.169733,508.622235 625.943826,508.328613 C626.717918,508.034992 627.505345,507.841472 628.30613,507.748047 L634.332009,507.007324 C634.905905,506.940592 635.35634,506.717043 635.683328,506.33667 C636.010315,505.956297 636.173806,505.345707 636.173806,504.504883 C636.173806,503.21028 635.750064,502.279381 634.902566,501.712158 C634.055068,501.144935 632.837226,500.861328 631.249001,500.861328 C629.620738,500.861328 628.406232,501.204993 627.605447,501.892334 C626.804662,502.579675 626.35089,503.61067 626.244119,504.985352 L622.800759,504.985352 Z M636.093728,509.089355 C635.800107,509.302898 635.436422,509.479736 635.002664,509.619873 C634.568905,509.76001 634.091777,509.87679 633.571267,509.970215 C633.050757,510.06364 632.496888,510.147054 631.909646,510.220459 C631.322403,510.293864 630.73517,510.370605 630.147927,510.450684 C629.480606,510.544109 628.86668,510.677571 628.30613,510.851074 C627.745581,511.024578 627.258444,511.251463 626.844705,511.531738 C626.430966,511.812013 626.110656,512.149005 625.883767,512.542725 C625.656878,512.936444 625.543435,513.400225 625.543435,513.934082 C625.543435,514.548017 625.640195,515.088539 625.833718,515.555664 C626.027241,516.022789 626.294166,516.416502 626.634499,516.736816 C626.974833,517.057131 627.38523,517.297362 627.865701,517.45752 C628.346172,517.617677 628.873348,517.697754 629.447244,517.697754 C629.807597,517.697754 630.22133,517.654379 630.688455,517.567627 C631.155579,517.480875 631.636043,517.35075 632.129861,517.177246 C632.623678,517.003743 633.107479,516.780193 633.581277,516.506592 C634.055075,516.23299 634.478817,515.902671 634.852517,515.515625 C635.226217,515.128579 635.526507,514.688154 635.753396,514.194336 C635.980285,513.700518 636.093728,513.14665 636.093728,512.532715 L636.093728,509.089355 Z M650.66726,490.230957 C650.840764,491.085128 651.201112,491.762449 651.748315,492.262939 C652.295518,492.76343 653.102965,493.013672 654.170678,493.013672 C655.251738,493.013672 656.065858,492.770103 656.613061,492.282959 C657.160264,491.795815 657.513939,491.111821 657.674096,490.230957 L661.097436,490.230957 C661.08409,491.031742 660.910589,491.755775 660.576928,492.403076 C660.243268,493.050378 659.772813,493.600909 659.165551,494.054688 C658.558289,494.508466 657.83092,494.858804 656.983422,495.105713 C656.135925,495.352622 655.198353,495.476074 654.170678,495.476074 C653.143004,495.476074 652.208768,495.355958 651.367944,495.115723 C650.527119,494.875487 649.806423,494.528485 649.205834,494.074707 C648.605246,493.620929 648.134791,493.070397 647.794457,492.423096 C647.454124,491.775794 647.277286,491.045089 647.26394,490.230957 L650.66726,490.230957 Z M644.881616,498.559082 L648.565209,498.559082 L648.565209,514.995117 L648.645288,514.995117 L659.175561,498.559082 L663.399682,498.559082 L663.399682,520 L659.696069,520 L659.696069,503.563965 L659.615991,503.563965 L649.105737,520 L644.881616,520 L644.881616,498.559082 Z M673.749093,501.762207 L666.361886,501.762207 L666.361886,498.559082 L684.819894,498.559082 L684.819894,501.762207 L677.432687,501.762207 L677.432687,520 L673.749093,520 L673.749093,501.762207 Z M702.756707,509.249512 C702.756707,508.06168 702.623245,506.970627 702.356317,505.976318 C702.089388,504.98201 701.689002,504.124515 701.155145,503.403809 C700.621288,502.683102 699.963987,502.119224 699.183221,501.712158 C698.402456,501.305092 697.498249,501.101562 696.470575,501.101562 C695.4429,501.101562 694.54203,501.305092 693.767938,501.712158 C692.993846,502.119224 692.339881,502.683102 691.806024,503.403809 C691.272167,504.124515 690.87178,504.98201 690.604852,505.976318 C690.337924,506.970627 690.204461,508.06168 690.204461,509.249512 C690.204461,510.45069 690.337924,511.555089 690.604852,512.562744 C690.87178,513.570399 691.272167,514.434567 691.806024,515.155273 C692.339881,515.87598 692.993846,516.439858 693.767938,516.846924 C694.54203,517.25399 695.4429,517.45752 696.470575,517.45752 C697.498249,517.45752 698.402456,517.25399 699.183221,516.846924 C699.963987,516.439858 700.621288,515.87598 701.155145,515.155273 C701.689002,514.434567 702.089388,513.570399 702.356317,512.562744 C702.623245,511.555089 702.756707,510.45069 702.756707,509.249512 Z M706.440301,509.249512 C706.440301,511.011239 706.213415,512.596103 705.759637,514.00415 C705.305859,515.412198 704.651894,516.610021 703.797723,517.597656 C702.943552,518.585291 701.89921,519.342689 700.664666,519.869873 C699.430123,520.397057 698.032106,520.660645 696.470575,520.660645 C694.909043,520.660645 693.514363,520.397057 692.286493,519.869873 C691.058622,519.342689 690.017617,518.585291 689.163446,517.597656 C688.309275,516.610021 687.65531,515.412198 687.201532,514.00415 C686.747753,512.596103 686.520868,511.011239 686.520868,509.249512 C686.520868,507.514477 686.747753,505.946296 687.201532,504.544922 C687.65531,503.143548 688.309275,501.949061 689.163446,500.961426 C690.017617,499.973791 691.058622,499.216393 692.286493,498.689209 C693.514363,498.162025 694.909043,497.898438 696.470575,497.898438 C698.032106,497.898438 699.430123,498.162025 700.664666,498.689209 C701.89921,499.216393 702.943552,499.973791 703.797723,500.961426 C704.651894,501.949061 705.305859,503.143548 705.759637,504.544922 C706.213415,505.946296 706.440301,507.514477 706.440301,509.249512 Z M709.822915,498.559082 L718.951822,498.559082 C721.56772,498.559082 723.526278,499.046219 724.827554,500.020508 C726.12883,500.994797 726.779458,502.409496 726.779458,504.264648 C726.779458,505.252284 726.539226,506.086422 726.058755,506.76709 C725.578284,507.447757 724.944339,508.048337 724.1569,508.568848 C725.291346,508.995933 726.192216,509.609859 726.859537,510.410645 C727.526858,511.21143 727.860513,512.245762 727.860513,513.513672 C727.860513,514.514653 727.693685,515.415523 727.360025,516.216309 C727.026364,517.017094 726.519208,517.697751 725.83854,518.258301 C725.157873,518.81885 724.293705,519.249266 723.246011,519.549561 C722.198317,519.849855 720.960455,520 719.532388,520 L709.822915,520 L709.822915,498.559082 Z M713.506509,517.057129 L719.111978,517.057129 C720.086267,517.057129 720.89705,516.980388 721.544351,516.826904 C722.191652,516.67342 722.708819,516.449871 723.095865,516.15625 C723.482911,515.862629 723.756508,515.508954 723.916665,515.095215 C724.076823,514.681476 724.1569,514.214358 724.1569,513.693848 C724.1569,513.173337 724.076823,512.702883 723.916665,512.282471 C723.756508,511.862058 723.482911,511.508384 723.095865,511.221436 C722.708819,510.934487 722.191652,510.714275 721.544351,510.560791 C720.89705,510.407307 720.086267,510.330566 719.111978,510.330566 L713.506509,510.330566 L713.506509,517.057129 Z M713.506509,507.62793 L719.071939,507.62793 C720.313156,507.62793 721.294103,507.381025 722.01481,506.887207 C722.735517,506.393389 723.095865,505.625982 723.095865,504.584961 C723.095865,503.997718 722.995768,503.507245 722.795572,503.113525 C722.595375,502.719806 722.328451,502.402833 721.99479,502.162598 C721.66113,501.922362 721.284099,501.752198 720.863687,501.6521 C720.443275,501.552001 720.012859,501.501953 719.572427,501.501953 L713.506509,501.501953 L713.506509,507.62793 Z" id="Команда-разработки-с" fill="#FFFFFF"></path>
        </g>
    </g>
</svg>