<?xml version="1.0" encoding="UTF-8"?>
<svg width="44px" height="44px" viewBox="0 0 44 44" version="1.1" xmlns="http://www.w3.org/2000/svg" xmlns:xlink="http://www.w3.org/1999/xlink">
    <!-- Generator: Sketch 43.1 (39012) - http://www.bohemiancoding.com/sketch -->
    <title>Skype-color</title>
    <desc>Created with Sketch.</desc>
    <defs></defs>
    <g id="Дезигн" stroke="none" stroke-width="1" fill="none" fill-rule="evenodd">
        <g id="Mib-Макет-сайта" transform="translate(-954.000000, -80.000000)" fill="#00AEF3">
            <path d="M996.734948,106.67084 C997.544685,108.277517 998,110.085666 998,112.000927 C998,118.626558 992.55174,124 985.830668,124 C983.748119,124 981.792333,123.482293 980.07714,122.574393 C978.830198,122.801368 977.547037,122.921231 976.232832,122.921231 C964.642992,122.921231 955.246943,113.65861 955.246943,102.22825 C955.246943,100.805193 955.394403,99.4127398 955.671214,98.0712919 C954.610536,96.2860952 954,94.2152669 954,92.0016229 C954,85.370892 959.44826,80 966.171919,80 C968.549389,80 970.76905,80.6758245 972.644638,81.841303 C973.81397,81.642381 975.011759,81.5378195 976.232832,81.5378195 C987.825259,81.5378195 997.218721,90.8029908 997.218721,102.22825 C997.218721,103.753318 997.053151,105.237582 996.734948,106.67084 Z M986.997413,112.11824 C987.970132,110.75894 988.466839,109.205819 988.466839,107.502231 C988.466839,106.076624 988.17968,104.852489 987.613123,103.85533 C987.046566,102.86582 986.252352,102.039529 985.248589,101.394308 C984.260348,100.759288 983.054798,100.218629 981.655221,99.7799803 C980.276341,99.3438822 978.716369,98.9383875 977.016698,98.5813482 C975.674036,98.2753144 974.696143,98.0381383 974.114064,97.8774706 C973.54492,97.7244537 972.975776,97.5051295 972.424741,97.2322495 C971.891816,96.9670202 971.470132,96.6558859 971.175212,96.293746 C970.89064,95.9571089 970.753528,95.5618153 970.753528,95.0925636 C970.753528,94.3223787 971.180386,93.672057 972.054798,93.1084449 C972.962841,92.51933 974.189087,92.2234974 975.689558,92.2234974 C977.311618,92.2234974 978.488711,92.4887266 979.194967,93.0191851 C979.921919,93.5649452 980.555738,94.3376804 981.078316,95.3169883 C981.531044,96.0820727 981.939793,96.6176317 982.33302,96.9619197 C982.752117,97.3291601 983.362653,97.5178809 984.138758,97.5178809 C984.992474,97.5178809 985.719426,97.2194981 986.293744,96.6278328 C986.865475,96.0438185 987.155221,95.3705443 987.155221,94.6309627 C987.155221,93.8633281 986.932738,93.0701907 986.498119,92.2719527 C986.068674,91.4813656 985.380527,90.7239321 984.456961,90.0098534 C983.541157,89.3034255 982.376999,88.7321625 980.992944,88.3088159 C979.616651,87.8854692 977.968721,87.6712456 976.09572,87.6712456 C973.749294,87.6712456 971.67968,87.992581 969.938617,88.627601 C968.171684,89.2677216 966.800564,90.2113256 965.864064,91.4176085 C964.917215,92.6315423 964.438617,94.0418478 964.438617,95.6026198 C964.438617,97.2424506 964.896519,98.6374544 965.796802,99.7519272 C966.684149,100.845998 967.89746,101.720744 969.403104,102.350664 C970.872531,102.970382 972.722248,103.513592 974.903104,103.972642 C976.504468,104.304179 977.797977,104.622964 978.752587,104.913696 C979.665804,105.199328 980.418627,105.607373 980.992944,106.132731 C981.536218,106.637686 981.802681,107.280357 981.802681,108.093897 C981.802681,109.129311 981.295626,109.976004 980.247883,110.677331 C979.179445,111.396511 977.756585,111.763751 976.020696,111.763751 C974.760818,111.763751 973.733772,111.580131 972.973189,111.228192 C972.21778,110.873703 971.625353,110.422303 971.21143,109.881644 C970.784572,109.328233 970.380997,108.619255 970.008467,107.777662 C969.674741,107.010027 969.260818,106.410711 968.777046,106.005216 C968.272578,105.58442 967.649106,105.372747 966.929915,105.372747 C966.050329,105.372747 965.313029,105.640526 964.738711,106.176085 C964.159219,106.714195 963.864299,107.372167 963.864299,108.12705 C963.864299,109.343534 964.31444,110.600823 965.206961,111.865762 C966.089135,113.125601 967.250706,114.140613 968.66063,114.890396 C970.634525,115.92326 973.162041,116.446067 976.175917,116.446067 C978.687912,116.446067 980.892051,116.060975 982.731421,115.306092 C984.594073,114.546108 986.027281,113.47499 986.997413,112.11824 Z" id="Skype"></path>
        </g>
    </g>
</svg>